<?xml version="1.0" encoding="utf-8"?>
<!-- Generator: Adobe Illustrator 19.0.0, SVG Export Plug-In . SVG Version: 6.00 Build 0)  -->
<svg version="1.1" id="Layer_1" xmlns="http://www.w3.org/2000/svg" xmlns:xlink="http://www.w3.org/1999/xlink" x="0px" y="0px"
	 viewBox="0 0 1104 636" style="enable-background:new 0 0 1104 636;" xml:space="preserve">
<style type="text/css">
	.st0{fill:#96C6EE;}
	.st1{fill:#FFFFFF;}
	.st2{fill:#C43A2D;}
	.st3{fill:#D53F31;}
	.st4{fill:#C66414;}
	.st5{fill:#9DD139;}
	.st6{fill:#69A43C;}
	.st7{fill:#56A6ED;}
	.st8{fill:#E1553D;}
	.st9{fill:#5DB0D1;}
</style>
<path id="XMLID_11_" class="st0" d="M1522.7,556.9L1371.4,413c-25.9-14.1-41.9-40.8-41.9-69.6l-48.4-192.2
	c0.6-26.1,61.2-65.6,85.3-51.5l204.6,111.8c23.1,12.6,37.3,36.3,37.3,62v234.3C1608.3,526.8,1587,566.3,1522.7,556.9z"/>
<path id="XMLID_10_" class="st1" d="M1514.6,554l-192.9-108.5c-25.1-14.1-40.7-40.8-40.7-69.6V153.2c0-18.4,19.8-30,35.9-21
	L1515.6,244c22.4,12.6,36.3,36.3,36.3,62v226.3C1551.9,551.4,1531.3,563.4,1514.6,554z"/>
<g id="XMLID_1_">
	<polygon id="XMLID_261_" class="st2" points="1482.5,306.4 1348,235.2 1357,398.9 1412.4,445 1468.4,458.2 	"/>
	<polygon id="XMLID_259_" class="st3" points="1414.3,284 1412.4,431.3 1460.2,441.9 1472.3,314.2 	"/>
	<polygon id="XMLID_258_" class="st1" points="1456.1,325.6 1372.4,281.1 1376.5,341.6 1435.2,372.4 1431.9,396 1413,391.1 
		1395.6,377.5 1394.4,360.1 1376.3,351.1 1378.6,383.7 1412.8,412.4 1448.2,420.5 1453.1,362.3 1390.8,329.4 1391.2,310.3 
		1456.1,344.6 	"/>
</g>
<path id="XMLID_26_" class="st0" d="M1522.7,1164.9L1371.4,1021c-25.9-14.1-41.9-40.8-41.9-69.6l-48.4-192.2
	c0.6-26.1,61.2-65.6,85.3-51.5l204.6,111.8c23.1,12.6,37.3,36.3,37.3,62v234.3C1608.3,1134.8,1587,1174.3,1522.7,1164.9z"/>
<path id="XMLID_25_" class="st1" d="M1514.6,1162l-192.9-108.5c-25.1-14.1-40.7-40.8-40.7-69.6V761.2c0-18.4,19.8-30,35.9-21
	L1515.6,852c22.4,12.6,36.3,36.3,36.3,62v226.3C1551.9,1159.4,1531.3,1171.4,1514.6,1162z"/>
<g id="XMLID_2_">
	<path id="XMLID_104_" d="M1494,964.4c-0.1,0.1-0.2,0.3-0.3,0.4c-6.8,9.3-13.6,18.7-20.4,28c-0.4,0.5-0.4,0.9-0.2,1.4
		c5.5,13.7,11,27.4,16.5,41.1c1.4,3.5,2.8,7.1,4.2,10.6c0.1,0.1,0.1,0.3,0.2,0.5c-0.1,0-0.2,0-0.2,0c-3.9-1.8-7.4-4.1-10.3-7.2
		c-2.2-2.3-3.7-5-5-7.8c-2.8-5.7-5.1-11.7-7.6-17.6c-1.4-3.3-2.7-6.6-4.1-9.9c-0.3-0.7-0.6-1.3-1.1-1.9c-0.7-1-1.4-0.9-2.1,0
		c-2.9,3.8-5.7,7.6-8.7,11.4c-1.1,1.4-2.4,2.6-3.6,3.9c-1.7,1.6-3.7,1.8-5.9,1.3c-2.8-0.7-5.2-2-7.6-3.5c-0.5-0.3-1-0.6-1.5-1
		c0.1-0.2,0.3-0.4,0.4-0.6c6.8-9.3,13.6-18.6,20.4-27.9c0.3-0.5,0.3-0.9,0.1-1.3c-1.5-3.8-3.1-7.7-4.6-11.5
		c-5.3-13.4-10.7-26.7-16-40.1c-0.1-0.2-0.2-0.5-0.3-0.7c0,0,0.1-0.1,0.1-0.1c4.2,1.7,8,4.1,11,7.6c1.9,2.2,3.2,4.8,4.5,7.4
		c3,6.2,5.4,12.6,8.1,18.9c1.2,3,2.5,6.1,3.7,9.1c0.3,0.6,0.6,1.3,1.1,1.8c0.6,0.8,1.2,0.7,1.8,0c1.6-2,3.2-4.1,4.8-6.1
		c1.8-2.3,3.6-4.7,5.6-7c0.9-1.1,2.1-2.1,3.2-3c1.4-1.2,3-1.2,4.7-0.9c2.7,0.6,5.1,1.9,7.4,3.4
		C1492.8,963.4,1493.4,963.9,1494,964.4C1494,964.4,1494,964.4,1494,964.4z"/>
	<path id="XMLID_103_" d="M1330.6,872c4.9,2.3,8.5,5.9,11,10.5c1.7,3,2.5,6.2,3.1,9.6c1,6,2.1,11.9,3.2,17.9c1.1,6,2.1,12,3.2,18
		c0.7,4,1.4,8,2.2,12c0,0.1,0,0.2,0.2,0.3c0.1-0.5,0.2-0.9,0.3-1.4c2.4-10.7,4.8-21.3,7.3-32c0.5-2,1.2-4,2.2-5.8
		c1.5-2.8,3.4-3.6,6.5-2.9c2.5,0.6,4.6,2,6.5,3.6c3.5,3,5.6,6.8,6.9,11.1c1.1,3.6,1.9,7.4,2.6,11.1c1.1,5.9,2.1,11.8,3.2,17.7
		c1.1,6.3,2.3,12.5,3.4,18.8c0.1,0.6,0.2,1.2,0.3,1.8c0,0,0.1,0,0.1,0c0.2-0.9,0.4-1.8,0.6-2.7c2.4-10.8,4.8-21.6,7.2-32.5
		c0.4-1.8,0.8-3.6,1.3-5.4c0.2-0.7,0.5-1.3,0.8-1.9c1.3-2.4,3.4-3.3,6.1-2.9c2.3,0.4,4.4,1.4,6.4,2.6c0.2,0.2,0.3,0.3,0.2,0.6
		c-2.5,11-5.1,22-7.6,33c-2.8,12.1-5.5,24.2-8.3,36.3c-0.2,1.1-0.5,2.2-0.8,3.3c-0.1,0-0.2-0.1-0.2-0.1c-7.4-3.5-11.9-9.4-13.9-17.3
		c-1.1-4.5-1.9-9-2.7-13.5c-0.9-5.4-1.9-10.9-2.8-16.3c-0.9-5.2-1.8-10.5-2.7-15.7c-0.6-3.5-1.2-6.9-1.9-10.3
		c-0.1-0.6-0.3-1.3-0.6-1.9c-0.2-0.4-0.6-0.8-0.9-1.1c-0.6-0.4-1.1-0.3-1.4,0.4c-0.4,1.3-0.8,2.6-1.1,3.9
		c-2.7,12.5-5.4,24.9-8.1,37.4c-0.4,1.7-1,3.5-1.7,5.1c-1.2,3.1-4.1,4.3-7.3,3.4c-1.8-0.5-3.4-1.5-5.1-2.3c-0.8-0.4-1.2-1-1.4-1.9
		c-1.1-6.2-2.2-12.4-3.4-18.6c-1.1-6-2.2-12.1-3.3-18.1c-1.2-6.4-2.3-12.8-3.5-19.2c-1.1-6-2.2-12.1-3.3-18.1c-1-5.4-2-10.9-3-16.3
		C1330.6,872.2,1330.6,872.1,1330.6,872z"/>
	<path id="XMLID_102_" d="M1431,942.2c0,0.2,0,0.4,0,0.5c0,18.5,0,36.9,0,55.4c0,2-0.1,3.9-0.6,5.8c-0.6,2.7-2.5,3.9-5.2,3.4
		c-1.5-0.3-2.8-1-4.1-1.8c-0.5-0.3-1.1-0.4-1.3-0.9c-0.2-0.4-0.1-1-0.1-1.6c0-13.8,0-27.7,0-41.5c0-4.2,0-8.4,0-12.5
		c0-0.9,0.1-1.9,0.4-2.8c0.4-1.3,1.3-1.9,2.6-2c1.5-0.1,3-0.2,4.5-0.3C1428.6,943.9,1429.9,943.3,1431,942.2z"/>
	<path id="XMLID_101_" d="M1419.6,939.9c0-3.4,0-6.8,0.8-10c0.2-0.8,0.5-1.5,0.9-2.2c0.9-1.4,2.4-1.9,4.2-1.6
		c1.9,0.4,3.6,1.2,5.2,2.1c0.2,0.1,0.4,0.4,0.4,0.6c0.1,2.2,0,4.5-0.6,6.6c-0.6,2.2-2.3,3.2-4.4,3.5c-0.9,0.1-1.7,0.1-2.6,0.1
		c-1.2,0-2.4,0.1-3.4,0.7C1420,939.8,1419.8,939.8,1419.6,939.9z"/>
</g>
<path id="XMLID_36_" class="st0" d="M646.7,556.9L495.4,413c-25.9-14.1-41.9-40.8-41.9-69.6l-48.4-192.2
	c0.6-26.1,61.2-65.6,85.3-51.5l204.6,111.8c23.1,12.6,37.3,36.3,37.3,62v234.3C732.3,526.8,711,566.3,646.7,556.9z"/>
<path id="XMLID_35_" class="st1" d="M638.6,554L445.7,445.6C420.6,431.4,405,404.8,405,376V153.2c0-18.4,19.8-30,35.9-21L639.6,244
	c22.4,12.6,36.3,36.3,36.3,62v226.3C675.9,551.4,655.3,563.4,638.6,554z"/>
<path id="XMLID_13_" class="st0" d="M646.7,1164.9L495.4,1021c-25.9-14.1-41.9-40.8-41.9-69.6l-48.4-192.2
	c0.6-26.1,61.2-65.6,85.3-51.5l204.6,111.8c23.1,12.6,37.3,36.3,37.3,62v234.3C732.3,1134.8,711,1174.3,646.7,1164.9z"/>
<path id="XMLID_12_" class="st1" d="M638.6,1162l-192.9-108.5c-25.1-14.1-40.7-40.8-40.7-69.6V761.2c0-18.4,19.8-30,35.9-21
	L639.6,852c22.4,12.6,36.3,36.3,36.3,62v226.3C675.9,1159.4,655.3,1171.4,638.6,1162z"/>
<g id="XMLID_22_">
	<g id="XMLID_80_">
		<path id="XMLID_85_" class="st4" d="M608.3,321.4c-0.1,0.5-0.2,1.1-0.2,1.6c-0.3,1.7-0.8,3.4-2,4.7c-1.2,1.3-2.6,1.9-4.3,2
			c-2.5,0.1-4.7-0.8-6.8-2c-5.2-3.1-8.7-7.6-11-13.2c-1-2.5-1.6-5.1-1.7-7.7c-0.1-2.4,0.1-4.8,1.1-7c0.9-1.8,2.3-3.1,4.3-3.5
			c1.6-0.3,3.2,0,4.7,0.5c3.4,1.3,6.3,3.3,8.7,6c3.5,3.9,5.8,8.3,6.8,13.5c0.2,0.9,0.2,1.9,0.4,2.9c0,0.2,0.1,0.4,0.1,0.6
			C608.3,320.3,608.3,320.8,608.3,321.4z"/>
		<path id="XMLID_82_" class="st4" d="M572.8,422.5c-0.6-0.3-1.1-0.6-1.6-0.9c-8.1-4.6-16.3-9.2-24.4-13.8c-0.4-0.2-0.5-0.5-0.6-0.9
			c-1.1-5.1-2.2-10.2-3.4-15.3c-1.1-4.8-2.1-9.7-3.2-14.5c-0.4-1.7-0.6-3.3-1-5c-0.4-2.2-1.7-3.8-3.7-4.9
			c-6.9-3.8-13.7-7.6-20.6-11.4c-1.7-1-3.4-2-5.2-3c-0.5-0.3-1-0.5-1.5-0.7c-0.9-0.3-1.6,0-1.9,0.8c-0.3,0.8-0.5,1.7-0.8,2.6
			c-1.9,7-3.7,14.1-5.6,21.1c-0.3,1-0.5,2-0.8,3c-0.1,0.2-0.2,0.5-0.2,0.7c-1.3-0.7-2.5-1.4-3.8-2.1c-7.1-4-14.2-8.1-21.3-12.1
			c-0.3-0.2-0.4-0.3-0.3-0.7c2.5-8.3,4.9-16.5,7.4-24.8c4-13.3,7.9-26.6,11.9-40c3.8-12.9,7.7-25.8,11.5-38.8
			c0.6-2.1,1.2-4.2,1.9-6.3c0.1-0.3,0.2-0.7,0.4-1c0.3-0.7,0.8-0.9,1.6-0.6c0.5,0.2,1.1,0.4,1.6,0.7c9.2,5.2,18.3,10.4,27.5,15.6
			c1.6,0.9,2.5,2.1,2.9,3.9c1.7,7.7,3.5,15.4,5.2,23.2c1.9,8.7,3.9,17.3,5.8,26c1.8,8,3.6,15.9,5.4,23.9c2,8.8,4,17.6,5.9,26.4
			c1.9,8.4,3.8,16.8,5.7,25.2c1.7,7.4,3.4,14.9,5,22.3C572.7,421.6,572.8,422,572.8,422.5z M534.1,344.6c0,0,0.1-0.1,0.1-0.1
			c-0.1-0.6-0.2-1.2-0.4-1.9c-1.9-9.4-3.9-18.8-5.8-28.2c-2-9.8-4.1-19.7-6.1-29.5c-0.1-0.3-0.1-0.6-0.5-0.5c-0.1,0-0.2,0.3-0.3,0.5
			c-0.5,1.8-0.9,3.6-1.3,5.4c-3.3,13.3-6.6,26.7-9.9,40c-0.1,0.4,0,0.7,0.4,0.9c6.8,3.9,13.7,7.7,20.5,11.6
			C532,343.4,533.1,344,534.1,344.6z"/>
		<path id="XMLID_81_" class="st4" d="M607.3,442c-1-0.5-1.8-1-2.7-1.5c-7.1-4-14.2-8-21.3-12.1c-0.3-0.2-0.4-0.4-0.4-0.8
			c0-31.3,0-62.7,0-94c0-0.2,0-0.3,0-0.5c0.2,0.1,0.3,0.1,0.4,0.2c7.8,4.4,15.7,8.9,23.5,13.3c0.3,0.2,0.5,0.4,0.4,0.7
			c0,0.1,0,0.2,0,0.3c0,31.2,0,62.3,0,93.5C607.3,441.5,607.3,441.7,607.3,442z"/>
	</g>
</g>
<g id="XMLID_3_">
	<path id="XMLID_118_" class="st5" d="M569.6,884.5c-1.1-0.1-1.7-0.7-2-1.7c-0.3-1-0.7-2-1-3c-1.4-4.2-2.7-8.5-4.5-12.5
		c-2.2-4.7-5.2-8.7-9.7-11.5c-0.8-0.5-1.3-1.2-1.7-2c-0.4-0.8-0.8-1.6-1.3-2.4c-2-3.4-4.5-6.1-8.2-7.7c-2.8-1.2-5.8-1.8-8.9-1.3
		c-2.9,0.5-5.3,2-7.5,3.9c-3,2.8-5.3,6.2-7.1,9.8c-2.2,4.4-3.7,9-4.8,13.8c-0.3,1.1-0.6,2.2-1,3.2c-0.8,1.8-2.1,2.4-4,2
		c-1.3-0.3-2.7-0.6-4-0.8c-2.5-0.4-4.9-0.7-7.4-1.1c-1.9-0.3-2.9,0.4-3.4,2.3c-0.2,0.7-0.2,1.4-0.3,2.1c-0.2,2.1-0.4,4.2-0.6,6.3
		c-0.3,2.4-0.5,4.8-0.8,7.2c-0.2,2.1-0.4,4.1-0.7,6.2c-0.2,2.3-0.5,4.7-0.7,7c-0.2,2-0.4,4-0.6,6c-0.2,2.3-0.5,4.7-0.7,7
		c-0.2,2.4-0.5,4.7-0.7,7.1c-0.2,2.3-0.5,4.7-0.7,7c-0.2,2.4-0.5,4.7-0.7,7.1c-0.3,2.7-0.6,5.3-0.8,8c-0.3,2.7-0.5,5.4-0.8,8.1
		c-0.3,2.7-0.6,5.3-0.8,8c-0.3,2.7-0.5,5.4-0.8,8.1c-0.3,2.9-0.6,5.9-1,8.8c-0.3,2.7-0.6,5.4-1,8c-0.1,0.6,0,1.1,0.6,1.6
		c5.2,4.1,10.3,8.3,15.5,12.5c12.4,10,24.8,20,37.3,30c10.2,8.2,20.5,16.4,30.7,24.6l7.7-171.4C571.9,884.9,570.7,884.6,569.6,884.5
		z M548.2,862.1c0.4,0,0.5,0.2,0.7,0.6c0.5,1.3,0.6,2.7,0.7,4c0.2,2.3,0.4,4.6,0.7,6.8c0.2,1.7,0.3,3.5,0.4,5.2
		c0,0.4,0.1,0.8,0.1,1.2c0,0,0.1,0,0.1,0c-0.1,0.4-0.3,0.8-0.4,1.1c-0.2,0.4-0.5,0.5-1,0.4c-4.2-0.6-8.4-1.3-12.6-1.9
		c-0.1,0-0.3-0.1-0.4-0.1c-0.6-0.2-0.7-0.3-0.6-0.9c0.5-4.4,2.1-8.3,4.7-11.8c1.3-1.8,2.9-3.3,5-4.2
		C546.4,862.2,547.2,862,548.2,862.1z M517.8,875.4c0.4-1.6,0.9-3.3,1.4-4.9c1.3-4.1,2.9-8.1,5.2-11.8c1.5-2.5,3.3-4.8,5.6-6.7
		c1.9-1.5,4.1-2.5,6.6-2.4c1.9,0,3.8,0.5,5.5,1.3c1.2,0.5,2.1,1.4,2.9,2.5c0.2,0.2,0.2,0.4-0.1,0.5c-0.2,0.1-0.4,0.3-0.6,0.3
		c-4.3,0.9-7.2,3.5-9.3,7.2c-1.5,2.6-2.4,5.5-3.3,8.4c-0.6,2.2-1.2,4.4-1.8,6.6c0,0.1-0.1,0.3-0.1,0.4c-0.4,1.3-0.9,1.6-2.3,1.4
		c-2.7-0.4-5.5-0.9-8.2-1.3c-0.3,0-0.5-0.1-0.8-0.2C517.5,876.5,517.5,876.4,517.8,875.4z M551.7,922.4c-1.4,4.7-2.8,9.4-4.2,14.2
		c-0.3,1.2-0.7,2.3-1.1,3.5c0,0.1-0.1,0.3-0.2,0.4c-0.1,0-0.1,0.1-0.2,0.1c-0.1-0.2-0.2-0.4-0.4-0.6c-2.1-2.3-4.3-4.5-6.8-6.5
		c-2.2-1.7-4.4-3.1-7.1-4c-1-0.3-2-0.5-3-0.3c-1.5,0.3-2.4,1.2-2.9,2.6c-0.7,1.8-0.6,3.7-0.2,5.6c0.4,1.8,1.3,3.4,2.2,5
		c3.3,5.5,6.6,10.9,9.9,16.4c2.2,3.7,4.3,7.5,5.6,11.6c1.1,3.4,1.9,6.8,2.2,10.3c0.2,2.3,0.3,4.6,0.3,6.9c-0.1,4.5-0.9,8.9-3,12.9
		c-1.2,2.3-2.8,4.2-5.1,5.4c-2.6,1.4-5.3,1.4-8,0.7c-4.4-1.1-8.3-3.3-11.9-6.2c-4.6-3.7-8.4-8.2-11.7-13.1c-1.3-1.9-2.5-3.9-3.6-5.8
		c-0.7-1.1-0.9-2.3-0.5-3.6c1.1-4.1,2.1-8.1,3.2-12.2c0.1-0.3,0.3-0.6,0.5-1c0.2,0.2,0.3,0.4,0.4,0.5c2.2,3,4.3,6.1,6.5,9.1
		c2,2.6,4.2,4.9,7,6.6c0.7,0.4,1.5,0.8,2.3,1c1.4,0.4,2.6-0.2,3.3-1.5c0.7-1.2,0.8-2.5,0.8-3.8c-0.2-4.5-2-8.4-4.2-12.2
		c-2-3.3-4-6.5-5.9-9.8c-2.6-4.6-4.7-9.4-5.8-14.6c-0.5-2.3-0.8-4.7-1-7.1c-0.3-5.7,0.7-11.1,2.9-16.4c1.2-2.9,2.9-5.5,5.6-7.3
		c1.8-1.2,3.8-1.9,5.9-2.1c3.8-0.4,7.4,0.4,10.9,1.7c6.4,2.3,11.9,6.2,16.6,11.1C551.8,920.6,552.1,921.4,551.7,922.4z M561.8,883.3
		c-1.8-0.2-3.6-0.5-5.3-0.8c-0.3,0-0.4-0.2-0.4-0.4c-0.2-2.6-0.5-5.1-0.7-7.7c-0.3-2.7-0.5-5.4-0.8-8.1c-0.1-0.7-0.1-1.5-0.2-2.2
		c0.1-0.1,0.1-0.1,0.2-0.2c0.1,0.2,0.2,0.4,0.3,0.5c2.6,2.6,4.2,5.9,5.5,9.3c1,2.8,1.8,5.6,2.4,8.5
		C563.1,882.9,562.7,883.4,561.8,883.3z"/>
	<path id="XMLID_117_" class="st1" d="M546.1,940.6c-0.1-0.2-0.2-0.4-0.4-0.6c-2.1-2.3-4.3-4.5-6.8-6.5c-2.2-1.7-4.4-3.1-7.1-4
		c-1-0.3-2-0.5-3-0.3c-1.5,0.2-2.4,1.2-2.9,2.6c-0.7,1.8-0.6,3.7-0.2,5.6c0.4,1.8,1.3,3.4,2.2,5c3.3,5.5,6.6,10.9,9.9,16.4
		c2.2,3.7,4.3,7.5,5.6,11.6c1.1,3.4,1.9,6.8,2.2,10.3c0.2,2.3,0.3,4.6,0.3,6.9c-0.1,4.5-0.9,8.9-3,12.9c-1.2,2.3-2.8,4.2-5.1,5.4
		c-2.6,1.4-5.3,1.4-8,0.7c-4.4-1.1-8.3-3.3-11.9-6.2c-4.6-3.7-8.4-8.2-11.7-13.1c-1.3-1.9-2.5-3.9-3.6-5.8c-0.7-1.1-0.9-2.3-0.5-3.6
		c1.1-4.1,2.1-8.1,3.2-12.2c0.1-0.3,0.3-0.6,0.5-1c0.2,0.2,0.3,0.4,0.4,0.5c2.2,3,4.3,6.1,6.5,9.1c2,2.6,4.2,4.9,7,6.6
		c0.7,0.4,1.5,0.8,2.3,1c1.4,0.4,2.6-0.2,3.3-1.5c0.7-1.2,0.8-2.5,0.8-3.8c-0.2-4.5-2-8.4-4.2-12.2c-2-3.3-4-6.5-5.9-9.8
		c-2.6-4.6-4.7-9.4-5.8-14.5c-0.5-2.3-0.8-4.7-1-7.1c-0.3-5.7,0.7-11.1,2.9-16.4c1.2-2.9,2.9-5.5,5.6-7.3c1.8-1.2,3.8-1.9,5.9-2.1
		c3.8-0.4,7.4,0.4,10.9,1.7c6.4,2.3,11.9,6.2,16.6,11.1c0.7,0.7,1,1.5,0.7,2.5c-1.4,4.7-2.8,9.4-4.2,14.2c-0.3,1.2-0.7,2.3-1.1,3.5
		c0,0.1-0.1,0.3-0.2,0.4C546.2,940.5,546.1,940.6,546.1,940.6z"/>
	<path id="XMLID_33_" class="st6" d="M614.9,1069.7c0,1.8-0.2,2-1.5,1.6c-14-3.8-28-7.7-42-11.5c-2.3-0.6-4.2-1.8-6.1-3.3l7.7-171.4
		c1,0.2,1.7,0.8,2.3,1.5c0.5,0.6,0.9,1.3,1.3,1.9c2.4,4.5,4.8,9,7.2,13.5c0.7,1.2,1.5,2.2,2.7,3c3,2,5.9,3.9,8.8,5.9
		c0.4,0.3,0.8,0.6,1.2,0.8c1.3,0.8,1.9,2,2.1,3.5c0.3,2.8,0.6,5.5,0.9,8.3c0.3,3,0.6,5.9,0.9,8.9c0.3,3,0.6,6,0.9,9
		c0.3,3,0.6,6,0.9,8.9c0.3,2.9,0.6,5.9,0.9,8.8c0.3,3.3,0.7,6.6,1,9.9c0.3,3.2,0.7,6.5,1,9.7c0.3,3.2,0.7,6.5,1,9.7
		c0.3,2.9,0.6,5.8,0.9,8.8c0.3,3.3,0.7,6.5,1,9.8c0.3,2.9,0.6,5.8,0.9,8.8c0.3,3.3,0.7,6.6,1,9.9c0.3,3.2,0.7,6.5,1,9.7
		c0.3,3.3,0.7,6.6,1,9.9c0.3,3.2,0.7,6.5,1,9.7c0.3,3.2,0.7,6.4,1,9.6C614.5,1066.5,614.7,1068.3,614.9,1069.7z"/>
</g>
<path id="XMLID_100_" class="st0" d="M1522.7,1846.9L1371.4,1703c-25.9-14.1-41.9-40.8-41.9-69.6l-48.4-192.2
	c0.6-26.1,61.2-65.6,85.3-51.5l204.6,111.8c23.1,12.6,37.3,36.3,37.3,62v234.3C1608.3,1816.8,1587,1856.3,1522.7,1846.9z"/>
<path id="XMLID_99_" class="st1" d="M1514.6,1844l-192.9-108.5c-25.1-14.1-40.7-40.8-40.7-69.6v-222.8c0-18.4,19.8-30,35.9-21
	l198.7,111.8c22.4,12.6,36.3,36.3,36.3,62v226.3C1551.9,1841.4,1531.3,1853.4,1514.6,1844z"/>
<path id="XMLID_76_" class="st0" d="M1522.7,2454.9L1371.4,2311c-25.9-14.1-41.9-40.8-41.9-69.6l-48.4-192.2
	c0.6-26.1,61.2-65.6,85.3-51.5l204.6,111.8c23.1,12.6,37.3,36.3,37.3,62v234.3C1608.3,2424.8,1587,2464.3,1522.7,2454.9z"/>
<path id="XMLID_75_" class="st1" d="M1514.6,2452l-192.9-108.5c-25.1-14.1-40.7-40.8-40.7-69.6v-222.8c0-18.4,19.8-30,35.9-21
	l198.7,111.8c22.4,12.6,36.3,36.3,36.3,62v226.3C1551.9,2449.4,1531.3,2461.4,1514.6,2452z"/>
<path id="XMLID_59_" class="st0" d="M646.7,1846.9L495.4,1703c-25.9-14.1-41.9-40.8-41.9-69.6l-48.4-192.2
	c0.6-26.1,61.2-65.6,85.3-51.5l204.6,111.8c23.1,12.6,37.3,36.3,37.3,62v234.3C732.3,1816.8,711,1856.3,646.7,1846.9z"/>
<path id="XMLID_58_" class="st1" d="M638.6,1844l-192.9-108.5c-25.1-14.1-40.7-40.8-40.7-69.6v-222.8c0-18.4,19.8-30,35.9-21
	l198.7,111.8c22.4,12.6,36.3,36.3,36.3,62v226.3C675.9,1841.4,655.3,1853.4,638.6,1844z"/>
<path id="XMLID_56_" class="st0" d="M646.7,2454.9L495.4,2311c-25.9-14.1-41.9-40.8-41.9-69.6l-48.4-192.2
	c0.6-26.1,61.2-65.6,85.3-51.5l204.6,111.8c23.1,12.6,37.3,36.3,37.3,62v234.3C732.3,2424.8,711,2464.3,646.7,2454.9z"/>
<path id="XMLID_55_" class="st1" d="M638.6,2452l-192.9-108.5c-25.1-14.1-40.7-40.8-40.7-69.6v-222.8c0-18.4,19.8-30,35.9-21
	l198.7,111.8c22.4,12.6,36.3,36.3,36.3,62v226.3C675.9,2449.4,655.3,2461.4,638.6,2452z"/>
<path id="XMLID_48_" class="st7" d="M627.5,1651.8c-0.1,0.8-0.1,1.7-0.3,2.5c-0.4,1.9-0.7,3.8-1.3,5.5c-4.9,14.5-9.8,29-14.7,43.4
	c-3.4,10-6.9,20-10.3,30c-1,2.9-2.3,5.6-4.3,7.9c-3,3.5-6.8,5.2-11.5,4.7c-3.5-0.4-6.8-1.7-9.8-3.4c-4.4-2.5-8.1-5.9-11.3-9.8
	c-5.8-6.9-9.5-14.9-11.7-23.6c-1.6-6.4-3-12.9-4.6-19.4c-0.4-1.7-0.8-3.4-1.2-5.1c0-0.2-0.1-0.3-0.3-0.5c-0.1,0.2-0.1,0.3-0.2,0.5
	c-1.6,5.2-3.1,10.3-4.7,15.5c-0.8,2.5-1.7,4.9-3.2,7.1c-2,2.9-4.6,4.9-8,5.7c-2.4,0.5-4.8,0.2-7.2-0.5c-4.3-1.3-8-3.5-11.5-6.3
	c-5-3.9-8.8-8.9-12-14.4c-3.9-6.8-6.4-14.1-8.3-21.6c-2.3-9.5-4.7-19.1-7.1-28.6c-2.4-9.9-4.9-19.7-7.3-29.6
	c-2.3-9.2-4.5-18.5-6.8-27.7c-1.2-4.8-2.4-9.7-3.4-14.6c-0.6-3-0.8-6-1.2-9c-0.1-0.7-0.1-1.5-0.2-2.2c0-1.2,0-2.4,0-3.6
	c0-0.2,0.1-0.4,0.1-0.5c0.1-2,0.5-3.9,1.2-5.8c1.3-3.3,3.5-5.5,6.9-6.5c2.4-0.7,4.9-0.8,7.3-0.3c3.4,0.6,6.5,2.1,9.3,4
	c4.5,3,8.2,6.9,11.3,11.3c3.9,5.7,6.6,12,8.2,18.7c1.9,8.4,3.6,16.8,5.4,25.1c0.5,2.5,1.1,4.9,1.7,7.3c0,0.2,0.1,0.3,0.2,0.6
	c0.1-0.2,0.1-0.3,0.2-0.4c0.6-1.9,1.1-3.8,1.7-5.7c1.6-5.5,3.3-11,4.9-16.5c0.6-2,1.3-4.1,2.3-5.9c1.2-2.1,2.7-4,4.8-5.2
	c2.5-1.4,5.1-1.5,7.9-1c3.5,0.7,6.7,2.2,9.7,4.2c5,3.2,9,7.6,12.2,12.5c4,6.1,6.6,12.8,8.1,19.9c2.2,9.7,4.3,19.5,6.5,29.3
	c0.1,0.5,0.3,1,0.4,1.5c0,0,0.1,0,0.1,0c0.2-0.4,0.4-0.7,0.5-1.1c2.1-7.3,4.2-14.7,6.2-22c0.8-2.7,1.8-5.3,3.5-7.6
	c2.2-2.8,5-4.3,8.6-4.2c2.3,0,4.5,0.6,6.7,1.5c5.8,2.4,10.4,6.2,14.4,10.9c3.1,3.6,5.5,7.7,7.4,12c2.1,4.7,3.4,9.5,4,14.6
	c0.1,0.9,0.2,1.8,0.3,2.7C627.5,1649.4,627.5,1650.6,627.5,1651.8z M546.1,1645.4c0.1,0,0.1,0,0.2,0c0.3,1,0.5,2,0.8,2.9
	c2.3,10.4,4.7,20.8,7,31.1c1.6,7.1,3.2,14.3,4.8,21.4c1,4.5,2,8.9,3.5,13.3c2,5.7,5.2,10.6,9.9,14.5c2.3,1.9,4.9,3.4,7.9,4.1
	c3.3,0.7,6.1,0,8.2-2.7c1.3-1.6,2.4-3.4,3.1-5.3c1.2-3.2,2.3-6.4,3.4-9.6c2.5-7.3,5-14.6,7.5-21.8c4.7-13.9,9.4-27.8,14.2-41.7
	c1.1-3.3,1.5-6.6,1-10c-1-7.4-4.3-13.6-10.1-18.3c-2.4-1.9-5-3.3-8-3.7c-2-0.3-3.8,0.4-5.1,1.9c-1.4,1.5-2.1,3.3-2.6,5.2
	c-2.1,7.4-4.2,14.9-6.3,22.3c-2.3,8-4.5,16-6.8,23.9c-0.8,2.8-1.6,5.5-2.5,8.3c0,0.2-0.1,0.3-0.2,0.4c-0.3-0.8-0.5-1.6-0.7-2.4
	c-3-13.5-6-27-9-40.4c-1.7-7.8-3.5-15.6-5.2-23.4c-1-4.3-1.9-8.7-3.4-12.9c-1.7-4.6-4.3-8.6-8.2-11.7c-2.3-1.9-4.8-3.3-7.8-3.9
	c-2.4-0.5-4.4,0.1-5.9,2.1c-1.4,1.8-2.3,3.8-2.9,5.9c-1.7,5.5-3.3,11.1-4.9,16.7c-3.5,11.8-7,23.6-10.5,35.3
	c-0.2,0.6-0.4,1.2-0.7,1.8c-0.4-1.1-0.7-2.2-0.9-3.3c-2.6-12.1-5.3-24.3-7.9-36.4c-2.2-10.1-4.3-20.3-6.5-30.4
	c-0.7-3.5-1.5-6.9-3-10.2c-2-4.4-4.7-8.3-8.7-11.1c-2.7-1.9-5.6-3.1-8.9-3c-3.2,0.1-5.3,1.9-5.9,5c-0.3,1.7-0.2,3.4,0,5
	c0.5,4.5,1.2,9,2.2,13.5c2.4,9.9,4.8,19.8,7.2,29.6c2.7,10.8,5.3,21.6,8,32.4c2.3,9.2,4.6,18.4,6.9,27.6c1.2,4.7,2.4,9.5,4.2,14
	c2.2,5.6,5.4,10.5,10.1,14.3c2.3,1.9,4.7,3.3,7.6,3.9c3.5,0.7,6.4-0.3,8.5-3.3c1.2-1.8,2-3.7,2.6-5.8c1.6-5.3,3.3-10.6,4.9-15.8
	c2.7-8.8,5.3-17.6,8-26.5C545.5,1647.3,545.8,1646.4,546.1,1645.4z"/>
<path id="XMLID_66_" class="st8" d="M587,2280.3c-0.1-0.4-0.3-0.7-0.4-0.9c-5.2-11.7-10.3-23.4-15.4-35.1c-0.3-0.6-0.4-1.3-0.5-2
	c-0.1-0.6,0.2-0.8,0.7-0.7c0.8,0.1,1.6,0.2,2.3,0.4c7.5,2.6,15,5.2,22.5,7.8c1.1,0.4,1.8,1.1,2.4,2c1.5,2.1,2.5,4.5,3.6,6.8
	c5.5,11.2,10.9,22.4,16.3,33.6c0.2,0.5,0.5,1,0.6,1.5c0.2,0.8-0.1,1.2-0.9,1.1c-2.5-0.5-5-1-7.5-1.5c-4.7-1-9.5-2.1-14.2-3.2
	c-0.2,0-0.4,0-0.6-0.1c0.1,0.3,0.2,0.6,0.4,0.9c3.6,7.8,7.1,15.6,10.7,23.4c2.8,6.1,5.6,12.2,8.4,18.4c0.3,0.6,0.5,1.3,0.7,1.9
	c0.3,1.1,0,1.5-1.1,1.6c-0.9,0-1.8,0-2.6-0.1c-1.9-0.2-3.8-0.4-5.7-0.6c-2-0.2-4-0.4-6-0.6c-1.9-0.2-3.8-0.4-5.7-0.6
	c-2-0.2-3.9-0.4-5.9-0.7c-1.9-0.2-3.8-0.4-5.7-0.6c-1.9-0.2-3.8-0.4-5.7-0.6c-1.9-0.2-3.7-0.4-5.6-0.6c-2-0.2-4-0.5-6-0.7
	c-1.6-0.2-3.2-0.4-4.9-0.6c-2.6-0.3-4.6-1.5-6-3.8c-1.2-2.1-2.1-4.3-2.9-6.6c-5.4-14.5-10.7-29-16.1-43.5c-0.2-0.6-0.6-1-1.3-1.1
	c-9.8-2.3-19.6-4.5-29.4-6.8c-1.1-0.2-2.1-0.5-3.2-0.8c-3-0.8-4.9-2.8-6.4-5.4c-1.1-1.9-1.6-3.9-2.2-6
	c-6.7-21.4-13.5-42.9-20.2-64.3c-3.9-12.3-7.7-24.6-11.5-36.9c-0.4-1.4-0.7-2.8-1-4.3c-0.1-0.4,0-1,0.1-1.4c0.2-0.9,0.7-1.2,1.6-0.9
	c1.3,0.5,2.7,1,3.9,1.6c9.4,4.2,18.9,8.5,28.3,12.7c0.8,0.4,1.6,0.8,2.4,1.3c1.3,0.9,2.1,2.1,2.6,3.5c4.3,11,8.6,22,12.9,33
	c8.6,22.1,17.1,44.2,25.6,66.3c0.3,0.8,0.7,1.2,1.6,1.4c11,2.8,22,5.6,32.9,8.4c4.5,1.1,9,2.3,13.5,3.4
	C586.5,2280.2,586.7,2280.3,587,2280.3z M531.3,2266.2c0.7,0,1-0.2,0.8-0.8c-0.1-0.4-0.3-0.9-0.4-1.3c-7.2-19.1-14.5-38.3-21.7-57.4
	c-4.7-12.4-9.4-24.9-14.1-37.3c-0.3-0.7-0.7-1.1-1.3-1.4c-6.9-3-13.8-6.1-20.6-9.1c-1.7-0.7-3.4-1.5-5.1-2.2c-0.2-0.1-0.5-0.1-0.6,0
	c-0.1,0.1-0.1,0.4-0.1,0.6c0,0.4,0.1,0.7,0.3,1c5,15.2,9.9,30.3,14.9,45.5c5.8,17.6,11.5,35.2,17.2,52.9c0.6,1.9,0.4,1.8,2.5,2.4
	c8.5,2.2,17,4.4,25.5,6.6C529.5,2265.7,530.5,2266,531.3,2266.2z M542.2,2276.8c0.1,0.4,0.2,0.6,0.3,0.9c5,13.1,9.9,26.1,14.9,39.2
	c0.3,0.9,0.8,1.7,1.3,2.6c0.3,0.6,0.8,0.9,1.5,1c1.8,0.2,3.6,0.5,5.5,0.7c2.2,0.3,4.3,0.6,6.5,0.9c2.1,0.3,4.2,0.5,6.2,0.8
	c2.1,0.3,4.2,0.6,6.3,0.9c2,0.3,4.1,0.5,6.1,0.8c2.3,0.3,4.6,0.6,7,0.9c2.1,0.3,4.1,0.6,6.2,0.8c1.1,0.1,2.1,0.3,3.2,0.3
	c0.6,0,0.7-0.2,0.6-0.8c-0.2-0.6-0.4-1.1-0.6-1.6c-5.2-11.6-10.5-23.2-15.7-34.8c-0.5-1-1.1-1.6-2.2-1.8c-3.3-0.7-6.6-1.5-9.9-2.3
	c-11.4-2.6-22.7-5.2-34.1-7.9C544.2,2277.3,543.3,2277.1,542.2,2276.8z M611.1,2286.4c0.7,0,0.9-0.2,0.7-0.6c-0.1-0.3-0.3-0.7-0.4-1
	c-2-4.2-4-8.3-6-12.5c-2.5-5.2-5-10.4-7.5-15.7c-0.4-0.9-1.1-1.5-2.1-1.9c-4.8-1.5-9.7-3.1-14.5-4.7c-1.1-0.3-2.1-0.7-3.2-1
	c-0.5-0.2-0.7,0.1-0.6,0.6c0.1,0.4,0.2,0.7,0.4,1.1c2.3,5.1,4.6,10.2,6.9,15.2c2.3,5,4.5,10,6.8,15c0.3,0.6,0.6,0.9,1.2,1.1
	c5.1,1.2,10.2,2.5,15.3,3.8C609.2,2285.9,610.2,2286.2,611.1,2286.4z"/>
<g id="XMLID_21_">
	<g id="XMLID_72_">
		<path id="XMLID_77_" class="st9" d="M1354,2140c0.6,0.2,1.2,0.5,1.9,0.7c5.1,1.8,10,4.1,14.8,6.3c8.2,3.8,16.2,8.1,23.9,12.9
			c6.3,3.9,12.2,8.3,17.5,13.5c8.4,8.6,14.7,18.5,18.5,29.9c1.7,4.9,2.8,10,3.2,15.2c0.2,2.7,0.4,5.4,0.4,8.1
			c-0.1,5.6-1,11-3.2,16.2c-1.4,3.2-3.3,6-6.1,8c-2.6,1.9-5.5,2.9-8.7,3.2c-5.4,0.6-10.6-0.5-15.7-2.2c-4.7-1.6-9.1-3.8-13.5-6.2
			c-2.5-1.4-5.1-2.8-7.6-4.2c-0.1-0.1-0.2-0.1-0.4-0.2c0,16.2,0,32.3,0,48.5c-0.2-0.1-0.4-0.2-0.5-0.2c-8-4.4-16-8.8-24-13.3
			c-0.4-0.2-0.6-0.5-0.6-1c0-29.3,0-58.7,0-88c0-15.5,0-31,0-46.5C1353.8,2140.5,1353.9,2140.3,1354,2140
			C1353.9,2140,1353.9,2140,1354,2140z M1378.8,2196.8C1378.8,2196.8,1378.8,2196.8,1378.8,2196.8c0,6.3,0,12.6,0,18.9
			c0,0.4,0.1,0.6,0.4,0.9c3.8,3.2,8.1,5.6,12.7,7.4c2.6,1,5.3,1.7,8.2,1.6c1.6-0.1,3.1-0.6,4.4-1.6c1.6-1.2,2.6-2.9,3.3-4.9
			c1.4-4.4,1.4-8.9,0.6-13.4c-1.2-6.9-4.5-12.8-9.4-17.9c-3.4-3.5-7.4-6.2-11.7-8.4c-2.3-1.2-4.7-2.1-7.1-3.2
			c-1-0.4-1.4-0.1-1.5,0.9c-0.1,1.1,0,2.2,0,3.3C1378.8,2185.9,1378.8,2191.3,1378.8,2196.8z"/>
		<path id="XMLID_74_" class="st9" d="M1439.8,2296.9c0.2,0.2,0.4,0.4,0.5,0.5c2.8,2.8,5.6,5.7,8.4,8.5c3.2,3.2,6.6,6.2,10.4,8.6
			c2.2,1.4,4.4,2.6,6.9,3.4c0.7,0.2,1.4,0.4,2.1,0.4c2.2,0.2,3.9-1.2,4.2-3.5c0.3-2.8-0.4-5.4-1.8-7.8c-1.1-2-2.6-3.6-4.2-5.2
			c-3.2-3.4-6.5-6.7-9.7-10.1c-4.5-4.7-8.6-9.7-11.9-15.2c-3.3-5.5-5.7-11.3-7-17.6c-1-5.1-0.9-10.2,0.8-15.2c1-2.7,2.3-5.2,4.4-7.2
			c2.2-2.1,4.9-3.3,7.9-3.6c3.7-0.4,7.2,0.4,10.7,1.5c6.1,2,11.6,5,16.7,8.8c5.2,3.7,9.9,8,14.2,12.7c0,0,0,0.1,0.1,0.1
			c0.5,0.5,0.6,1,0.5,1.7c-1.4,5.7-2.7,11.5-4.1,17.2c0,0.2-0.1,0.3-0.2,0.6c-0.2-0.2-0.3-0.3-0.5-0.4c-1.9-2-3.8-4-5.8-6
			c-2.9-2.9-6-5.6-9.6-7.8c-1.9-1.1-3.8-2.2-6-2.6c-0.8-0.1-1.6-0.2-2.3-0.2c-1.4,0.1-2.3,1-2.8,2.3c-0.5,1.5-0.3,3,0.1,4.6
			c0.5,2,1.5,3.8,2.9,5.4c2,2.4,4,4.7,6,7c3.5,3.8,7.1,7.5,10.6,11.3c4.2,4.6,7.9,9.7,10.6,15.4c2.3,4.9,3.9,10.1,4.4,15.5
			c0.4,4.1,0.5,8.1-0.4,12.1c-0.5,2.2-1.3,4.4-2.6,6.3c-2.2,3.2-5.2,5-9.1,5.6c-4.2,0.6-8.3-0.2-12.3-1.5c-4.2-1.4-8.1-3.5-12-5.6
			c-6.5-3.6-12.3-8-17.7-13.1c-1.9-1.8-3.7-3.7-5.5-5.6c-0.2-0.2-0.4-0.5-0.6-0.8c-0.5-0.9-0.8-1.8-0.5-2.9
			c1.3-5.4,2.5-10.9,3.7-16.4C1439.6,2297.7,1439.7,2297.4,1439.8,2296.9z"/>
	</g>
</g>
<path id="XMLID_265_" d="M1485,1685.7c0,0.9,0,1.8,0,2.8c0.1,1.6-0.2,3.1-0.4,4.6c-0.1,1-0.1,1.9-0.2,2.9c-0.2,1.9-0.4,3.8-0.7,5.6
	c-0.5,3.5-1.3,6.9-2.3,10.2c-2.3,7.7-6.1,14.6-11.4,20.6c-5,5.8-11.1,9.9-18.6,11.9c-2.2,0.6-4.4,1-6.7,1.2
	c-2.4,0.2-4.7,0.2-7.1,0.1c-4.9-0.4-9.6-1.3-14.3-2.8c-2.9-1-5.8-2-8.6-3.2c-1.7-0.7-3.4-1.8-5-2.7c-0.4-0.2-0.9-0.4-1.3-0.7
	c-4.1-2.5-8.1-5.2-11.9-8.1c-7-5.4-13.3-11.5-19-18.3c-6.7-7.9-12.7-16.3-18-25.1c-7.3-12.2-13-25.1-17-38.8
	c-1.8-6-3.2-12.1-4.2-18.2c-0.5-3.1-1-6.2-1.4-9.4c-0.3-2.4-0.5-4.7-0.7-7.1c-0.1-1.9-0.1-3.9-0.1-5.8c0-0.7,0-1.5,0-2.2
	c-0.1-1.9,0.2-3.8,0.4-5.8c0.1-1.5,0.2-3,0.4-4.5c0.3-2.4,0.6-4.8,1.1-7.2c0.9-4.5,2.2-9,4.1-13.2c3.3-7.2,7.6-13.6,13.7-18.7
	c4.8-4,10.3-6.6,16.5-7.8c3.3-0.6,6.6-0.8,9.9-0.6c5,0.2,9.9,1.2,14.7,2.7c3.2,1,6.3,2.2,9.4,3.4c1.8,0.7,3.5,1.8,5.2,2.8
	c4.8,2.8,9.4,5.9,13.8,9.3c6.8,5.3,13,11.4,18.5,18.1c5.3,6.4,10.3,13,14.7,20c7.9,12.4,14.2,25.6,18.7,39.7c2.1,6.4,3.7,13,5,19.6
	c0.6,3.2,1.1,6.4,1.5,9.5c0.3,2.5,0.6,4.9,0.8,7.4c0.2,2.5,0.3,5,0.4,7.5C1485.1,1685.6,1485,1685.6,1485,1685.7z M1443.9,1713.7
	c0.1,0,0.1,0,0.2,0c0.2-0.4,0.3-0.8,0.4-1.3c3.2-11.3,6.3-22.7,9.5-34c1.1-3.8,1.8-7.6,1.9-11.5c0-2.2-0.1-4.3-0.3-6.5
	c-0.2-2.8-0.8-5.6-1.4-8.4c-1.2-4.9-3-9.5-4.7-14.2c-1.4-3.7-2.8-7.5-4-11.2c-1.1-3.4-1.8-6.9-1.6-10.5c0.1-1.8,0.5-3.5,1.3-5.1
	c1.5-2.6,4-3.9,6.9-3.3c1.1,0.2,2.1,0.7,3.2,1c0.2,0.1,0.3,0.1,0.6,0.2c-0.2-0.3-0.2-0.4-0.3-0.5c-4.9-7.7-10.3-15.1-16.3-22
	c-5.2-6-10.9-11.5-17.3-16.3c-7.5-5.7-15.7-10.1-24.8-12.7c-4.1-1.2-8.3-2-12.5-2.2c-2.5-0.1-4.9,0.1-7.3,0.5
	c-4.4,0.7-8.5,2.2-12.2,4.6c-3.9,2.4-7.2,5.5-10.1,9.1c-0.2,0.2-0.4,0.5-0.6,0.7c0.6,0.4,1.2,0.7,1.8,1c4.6,2.6,9.2,5,14,7.1
	c2.1,0.9,4.2,1.9,6.2,2.9c2.2,1.1,3.1,2.9,3.1,5.3c0,1-0.5,1.7-1.3,1.7c-0.5,0-1-0.1-1.5-0.3c-2.2-0.9-4.4-1.9-6.6-2.8
	c-0.2-0.1-0.4-0.1-0.7-0.2c0.1,0.3,0.1,0.5,0.1,0.7c1.7,7,3.3,13.9,5,20.9c2.8,12,5.7,23.9,8.5,35.9c1.7,7.1,3.4,14.2,5.1,21.3
	c1.8,7.6,3.6,15.3,5.4,22.9c0,0.2,0.2,0.3,0.3,0.5c0.2-0.2,0.4-0.3,0.5-0.5c0.1-0.1,0.1-0.2,0.1-0.3c4.5-14.3,9-28.7,13.6-43
	c0.4-1.3,0.5-2.6,0.1-3.9c-3.1-12.3-6.3-24.7-9.4-37c-0.4-1.4-1.1-2.5-2.4-3.3c-1.9-1.2-3.8-2.4-5.6-3.7c-1.7-1.2-2.3-3-1.9-5
	c0.2-1.1,1-1.6,2.1-1.1c0.6,0.3,1.2,0.7,1.8,1c3.3,1.9,6.6,3.9,10,5.7c4.8,2.7,9.7,5.5,14.6,8.1c3,1.6,6.2,2.9,9.4,4.4
	c1.3,0.6,2.2,1.5,2.7,2.8c0.4,0.9,0.6,1.9,0.4,2.9c-0.2,0.9-0.7,1.3-1.6,1.3c-0.4,0-0.8-0.1-1.1-0.3c-2.2-0.9-4.4-1.9-6.6-2.8
	c-0.2-0.1-0.4-0.2-0.8-0.3C1427.8,1645.8,1435.8,1679.7,1443.9,1713.7z M1432.9,1735.7c-0.1-0.3-0.1-0.4-0.1-0.6
	c-1.9-7.6-3.9-15.2-5.8-22.7c-3.1-12.3-6.3-24.6-9.4-36.9c-1.8-7-3.6-14.1-5.4-21.1c-0.1-0.3-0.2-0.6-0.6-0.6
	c-0.1,0.2-0.1,0.3-0.2,0.5c-0.7,2.3-1.5,4.5-2.2,6.8c-3.5,10.7-7,21.4-10.5,32.1c-2.3,7-4.6,14-6.9,21c-0.1,0.3-0.2,0.6,0.2,0.9
	c3,2.6,6.1,5.1,9.3,7.5c8.8,6.3,18.2,11,28.9,12.8C1431,1735.4,1431.9,1735.6,1432.9,1735.7z M1343.4,1609.6c0.1,0,0.1,0,0.2,0
	c0,1.3-0.1,2.5,0,3.8c0.2,2.9,0.4,5.8,0.7,8.8c0.3,2.9,0.8,5.8,1.3,8.6c1.1,6.1,2.7,12.1,4.6,18c3.5,10.9,8.1,21.4,13.9,31.3
	c4.8,8.3,10.4,16.1,16.7,23.5c0.1,0.2,0.4,0.2,0.6,0.3c0-0.2,0.1-0.4,0-0.6c-0.5-2-1-4.1-1.5-6.1c-3.7-14.3-7.3-28.7-11-43
	c-3-11.9-6.1-23.8-9.1-35.8c-2.9-11.5-5.9-23-8.8-34.6c-0.3-1.3-0.7-2.7-1.1-4c-0.1-0.2-0.3-0.3-0.4-0.5c-0.1,0.1-0.2,0.3-0.3,0.4
	c-0.1,0.1-0.1,0.2-0.1,0.3c-3,7.4-4.6,15.2-5.2,23.1C1343.5,1605.2,1343.5,1607.4,1343.4,1609.6z M1469.6,1638.6c0,0-0.1,0-0.1,0
	c0,0.1,0,0.1,0,0.2c0,0.9,0.1,1.7,0.1,2.6c0,4.2,0.1,8.4-0.4,12.5c-0.2,1.8-0.4,3.6-0.8,5.4c-0.7,3.7-1.8,7.4-2.9,11
	c-6.5,19.5-12.9,39-19.4,58.6c-0.6,1.8-1.2,3.6-1.8,5.4c-0.1,0.3-0.2,0.6,0.1,0.8c0.2,0.1,0.5,0.1,0.7,0.1c0.5-0.1,0.9-0.2,1.4-0.4
	c6.2-1.7,11.7-4.7,16.3-9.2c4.5-4.4,7.7-9.7,9.9-15.6c1.9-4.9,3.2-10,3.8-15.2c0.4-3.2,0.8-6.5,0.9-9.7c0.1-2.9,0.1-5.7-0.1-8.6
	c-0.1-2.4-0.3-4.9-0.6-7.3c-0.4-2.9-0.8-5.8-1.3-8.7c-1.4-7.3-3.4-14.5-5.9-21.5C1469.8,1638.9,1469.7,1638.8,1469.6,1638.6z"/>
</svg>
