<?xml version="1.0" encoding="utf-8"?>
<!-- Generator: Adobe Illustrator 19.0.0, SVG Export Plug-In . SVG Version: 6.00 Build 0)  -->
<svg version="1.1" id="Layer_1" xmlns="http://www.w3.org/2000/svg" xmlns:xlink="http://www.w3.org/1999/xlink" x="0px" y="0px"
	 viewBox="0 0 1104 636" style="enable-background:new 0 0 1104 636;" xml:space="preserve">
<style type="text/css">
	.st0{fill:#96C6EE;}
	.st1{fill:#FFFFFF;}
	.st2{fill:#C43A2D;}
	.st3{fill:#D53F31;}
	.st4{fill:#C66414;}
	.st5{fill:#9DD139;}
	.st6{fill:#69A43C;}
	.st7{fill:#56A6ED;}
	.st8{fill:#E1553D;}
	.st9{fill:#5DB0D1;}
	.st10{fill:#3B79AA;}
</style>
<path id="XMLID_11_" class="st0" d="M620.1,575.5L468.8,431.6c-25.9-14.1-41.9-40.8-41.9-69.6l-48.4-192.2
	c0.6-26.1,61.2-65.6,85.3-51.5l204.6,111.8c23.1,12.6,37.3,36.3,37.3,62v234.3C705.7,545.3,684.4,584.8,620.1,575.5z"/>
<path id="XMLID_10_" class="st1" d="M612,572.6L419.1,464.1c-25.1-14.1-40.7-40.8-40.7-69.6V171.7c0-18.4,19.8-30,35.9-21L613,262.5
	c22.4,12.6,36.3,36.3,36.3,62v226.3C649.2,569.9,628.6,581.9,612,572.6z"/>
<g id="XMLID_1_">
	<polygon id="XMLID_261_" class="st2" points="579.8,324.9 445.4,253.7 454.4,417.4 509.8,463.5 565.8,476.7 	"/>
	<polygon id="XMLID_259_" class="st3" points="511.6,302.5 509.8,449.8 557.6,460.4 569.7,332.7 	"/>
	<polygon id="XMLID_258_" class="st1" points="553.5,344.2 469.8,299.7 473.9,360.2 532.6,390.9 529.3,414.5 510.4,409.6 493,396 
		491.7,378.6 473.7,369.6 476,402.2 510.2,430.9 545.6,439 550.5,380.9 488.2,347.9 488.6,328.8 553.5,363.1 	"/>
</g>
<path id="XMLID_26_" class="st0" d="M1826.8-941.7l-151.3-143.9c-25.9-14.1-41.9-40.8-41.9-69.6l-48.4-192.2
	c0.6-26.1,61.2-65.6,85.3-51.5l204.6,111.8c23.1,12.6,37.3,36.3,37.3,62v234.3C1912.3-971.8,1891-932.3,1826.8-941.7z"/>
<path id="XMLID_25_" class="st1" d="M1818.6-944.6l-192.9-108.5c-25.1-14.1-40.7-40.8-40.7-69.6v-222.8c0-18.4,19.8-30,35.9-21
	l198.7,111.8c22.4,12.6,36.3,36.3,36.3,62v226.3C1855.9-947.3,1835.3-935.2,1818.6-944.6z"/>
<g id="XMLID_2_">
	<path id="XMLID_104_" d="M1798.1-1142.2c-0.1,0.1-0.2,0.3-0.3,0.4c-6.8,9.3-13.6,18.7-20.4,28c-0.4,0.5-0.4,0.9-0.2,1.4
		c5.5,13.7,11,27.4,16.5,41.1c1.4,3.5,2.8,7.1,4.2,10.6c0.1,0.1,0.1,0.3,0.2,0.5c-0.1,0-0.2,0-0.2,0c-3.9-1.8-7.4-4.1-10.3-7.2
		c-2.2-2.3-3.7-5-5-7.8c-2.8-5.7-5.1-11.7-7.6-17.6c-1.4-3.3-2.7-6.6-4.1-9.9c-0.3-0.7-0.6-1.3-1.1-1.9c-0.7-1-1.4-0.9-2.1,0
		c-2.9,3.8-5.7,7.6-8.7,11.4c-1.1,1.4-2.4,2.6-3.6,3.9c-1.7,1.6-3.7,1.8-5.9,1.3c-2.8-0.7-5.2-2-7.6-3.5c-0.5-0.3-1-0.6-1.5-1
		c0.1-0.2,0.3-0.4,0.4-0.6c6.8-9.3,13.6-18.6,20.4-27.9c0.3-0.5,0.3-0.9,0.1-1.3c-1.5-3.8-3.1-7.7-4.6-11.5
		c-5.3-13.4-10.7-26.7-16-40.1c-0.1-0.2-0.2-0.5-0.3-0.7c0,0,0.1-0.1,0.1-0.1c4.2,1.7,8,4.1,11,7.6c1.9,2.2,3.2,4.8,4.5,7.4
		c3,6.2,5.4,12.6,8.1,18.9c1.2,3,2.5,6.1,3.7,9.1c0.3,0.6,0.6,1.3,1.1,1.8c0.6,0.8,1.2,0.7,1.8,0c1.6-2,3.2-4.1,4.8-6.1
		c1.8-2.3,3.6-4.7,5.6-7c0.9-1.1,2.1-2.1,3.2-3c1.4-1.2,3-1.2,4.7-0.9c2.7,0.6,5.1,1.9,7.4,3.4
		C1796.8-1143.2,1797.4-1142.8,1798.1-1142.2C1798.1-1142.3,1798.1-1142.3,1798.1-1142.2z"/>
	<path id="XMLID_103_" d="M1634.7-1234.7c4.9,2.3,8.5,5.9,11,10.5c1.7,3,2.5,6.2,3.1,9.6c1,6,2.1,11.9,3.2,17.9c1.1,6,2.1,12,3.2,18
		c0.7,4,1.4,8,2.2,12c0,0.1,0,0.2,0.2,0.3c0.1-0.5,0.2-0.9,0.3-1.4c2.4-10.7,4.8-21.3,7.3-32c0.5-2,1.2-4,2.2-5.8
		c1.5-2.8,3.4-3.6,6.5-2.9c2.5,0.6,4.6,2,6.5,3.6c3.5,3,5.6,6.8,6.9,11.1c1.1,3.6,1.9,7.4,2.6,11.1c1.1,5.9,2.1,11.8,3.2,17.7
		c1.1,6.3,2.3,12.5,3.4,18.8c0.1,0.6,0.2,1.2,0.3,1.8c0,0,0.1,0,0.1,0c0.2-0.9,0.4-1.8,0.6-2.7c2.4-10.8,4.8-21.6,7.2-32.5
		c0.4-1.8,0.8-3.6,1.3-5.4c0.2-0.7,0.5-1.3,0.8-1.9c1.3-2.4,3.4-3.3,6.1-2.9c2.3,0.4,4.4,1.4,6.4,2.6c0.2,0.2,0.3,0.3,0.2,0.6
		c-2.5,11-5.1,22-7.6,33c-2.8,12.1-5.5,24.2-8.3,36.3c-0.2,1.1-0.5,2.2-0.8,3.3c-0.1,0-0.2-0.1-0.2-0.1c-7.4-3.5-11.9-9.4-13.9-17.3
		c-1.1-4.5-1.9-9-2.7-13.5c-0.9-5.4-1.9-10.9-2.8-16.3c-0.9-5.2-1.8-10.5-2.7-15.7c-0.6-3.5-1.2-6.9-1.9-10.3
		c-0.1-0.6-0.3-1.3-0.6-1.9c-0.2-0.4-0.6-0.8-0.9-1.1c-0.6-0.4-1.1-0.3-1.4,0.4c-0.4,1.3-0.8,2.6-1.1,3.9
		c-2.7,12.5-5.4,24.9-8.1,37.4c-0.4,1.7-1,3.5-1.7,5.1c-1.2,3.1-4.1,4.3-7.3,3.4c-1.8-0.5-3.4-1.5-5.1-2.3c-0.8-0.4-1.2-1-1.4-1.9
		c-1.1-6.2-2.2-12.4-3.4-18.6c-1.1-6-2.2-12.1-3.3-18.1c-1.2-6.4-2.3-12.8-3.5-19.2c-1.1-6-2.2-12.1-3.3-18.1c-1-5.4-2-10.9-3-16.3
		C1634.7-1234.4,1634.7-1234.5,1634.7-1234.7z"/>
	<path id="XMLID_102_" d="M1735.1-1164.4c0,0.2,0,0.4,0,0.5c0,18.5,0,36.9,0,55.4c0,2-0.1,3.9-0.6,5.8c-0.6,2.7-2.5,3.9-5.2,3.4
		c-1.5-0.3-2.8-1-4.1-1.8c-0.5-0.3-1.1-0.4-1.3-0.9c-0.2-0.4-0.1-1-0.1-1.6c0-13.8,0-27.7,0-41.5c0-4.2,0-8.4,0-12.5
		c0-0.9,0.1-1.9,0.4-2.8c0.4-1.3,1.3-1.9,2.6-2c1.5-0.1,3-0.2,4.5-0.3C1732.7-1162.8,1733.9-1163.4,1735.1-1164.4z"/>
	<path id="XMLID_101_" d="M1723.7-1166.7c0-3.4,0-6.8,0.8-10c0.2-0.8,0.5-1.5,0.9-2.2c0.9-1.4,2.4-1.9,4.2-1.6
		c1.9,0.4,3.6,1.2,5.2,2.1c0.2,0.1,0.4,0.4,0.4,0.6c0.1,2.2,0,4.5-0.6,6.6c-0.6,2.2-2.3,3.2-4.4,3.5c-0.9,0.1-1.7,0.1-2.6,0.1
		c-1.2,0-2.4,0.1-3.4,0.7C1724-1166.8,1723.9-1166.8,1723.7-1166.7z"/>
</g>
<path id="XMLID_36_" class="st0" d="M1826.7-1621.6l-151.3-143.9c-25.9-14.1-41.9-40.8-41.9-69.6l-48.4-192.2
	c0.6-26.1,61.2-65.6,85.3-51.5l204.6,111.8c23.1,12.6,37.3,36.3,37.3,62v234.3C1912.3-1651.7,1891-1612.2,1826.7-1621.6z"/>
<path id="XMLID_35_" class="st1" d="M1818.6-1624.5L1625.7-1733c-25.1-14.1-40.7-40.8-40.7-69.6v-222.8c0-18.4,19.8-30,35.9-21
	l198.7,111.8c22.4,12.6,36.3,36.3,36.3,62v226.3C1855.9-1627.2,1835.3-1615.1,1818.6-1624.5z"/>
<path id="XMLID_13_" class="st0" d="M630.1-1615.8l-151.3-143.9c-25.9-14.1-41.9-40.8-41.9-69.6l-48.4-192.2
	c0.6-26.1,61.2-65.6,85.3-51.5l204.6,111.8c23.1,12.6,37.3,36.3,37.3,62v234.3C715.6-1646,694.3-1606.5,630.1-1615.8z"/>
<path id="XMLID_12_" class="st1" d="M621.9-1618.7l-192.9-108.5c-25.1-14.1-40.7-40.8-40.7-69.6v-222.8c0-18.4,19.8-30,35.9-21
	l198.7,111.8c22.4,12.6,36.3,36.3,36.3,62v226.3C659.2-1621.4,638.6-1609.4,621.9-1618.7z"/>
<g id="XMLID_22_">
	<g id="XMLID_80_">
		<path id="XMLID_85_" class="st4" d="M1788.3-1857.1c-0.1,0.5-0.2,1.1-0.2,1.6c-0.3,1.7-0.8,3.4-2,4.7c-1.2,1.3-2.6,1.9-4.3,2
			c-2.5,0.1-4.7-0.8-6.8-2c-5.2-3.1-8.7-7.6-11-13.2c-1-2.5-1.6-5.1-1.7-7.7c-0.1-2.4,0.1-4.8,1.1-7c0.9-1.8,2.3-3.1,4.3-3.5
			c1.6-0.3,3.2,0,4.7,0.5c3.4,1.3,6.3,3.3,8.7,6c3.5,3.9,5.8,8.3,6.8,13.5c0.2,0.9,0.2,1.9,0.4,2.9c0,0.2,0.1,0.4,0.1,0.6
			C1788.3-1858.3,1788.3-1857.7,1788.3-1857.1z"/>
		<path id="XMLID_82_" class="st4" d="M1752.8-1756c-0.6-0.3-1.1-0.6-1.6-0.9c-8.1-4.6-16.3-9.2-24.4-13.8c-0.4-0.2-0.5-0.5-0.6-0.9
			c-1.1-5.1-2.2-10.2-3.4-15.3c-1.1-4.8-2.1-9.7-3.2-14.5c-0.4-1.7-0.6-3.3-1-5c-0.4-2.2-1.7-3.8-3.7-4.9
			c-6.9-3.8-13.7-7.6-20.6-11.4c-1.7-1-3.4-2-5.2-3c-0.5-0.3-1-0.5-1.5-0.7c-0.9-0.3-1.6,0-1.9,0.8c-0.3,0.8-0.5,1.7-0.8,2.6
			c-1.9,7-3.7,14.1-5.6,21.1c-0.3,1-0.5,2-0.8,3c-0.1,0.2-0.2,0.5-0.2,0.7c-1.3-0.7-2.5-1.4-3.8-2.2c-7.1-4-14.2-8.1-21.3-12.1
			c-0.3-0.2-0.4-0.3-0.3-0.7c2.5-8.3,4.9-16.5,7.4-24.8c4-13.3,7.9-26.6,11.9-40c3.8-12.9,7.7-25.8,11.5-38.8
			c0.6-2.1,1.2-4.2,1.9-6.3c0.1-0.3,0.2-0.7,0.4-1c0.3-0.7,0.8-0.9,1.6-0.6c0.5,0.2,1.1,0.4,1.6,0.7c9.2,5.2,18.3,10.4,27.5,15.6
			c1.6,0.9,2.5,2.1,2.9,3.9c1.7,7.7,3.5,15.4,5.2,23.2c1.9,8.7,3.9,17.3,5.8,26c1.8,8,3.6,15.9,5.4,23.9c2,8.8,4,17.6,5.9,26.4
			c1.9,8.4,3.8,16.8,5.7,25.2c1.7,7.4,3.4,14.9,5,22.3C1752.7-1756.9,1752.8-1756.6,1752.8-1756z M1714.1-1833.9
			c0,0,0.1-0.1,0.1-0.1c-0.1-0.6-0.2-1.2-0.4-1.9c-1.9-9.4-3.9-18.8-5.8-28.2c-2-9.8-4.1-19.7-6.1-29.5c-0.1-0.3-0.1-0.6-0.5-0.5
			c-0.1,0-0.2,0.3-0.3,0.5c-0.5,1.8-0.9,3.6-1.3,5.4c-3.3,13.3-6.6,26.7-9.9,40c-0.1,0.4,0,0.7,0.4,0.9c6.8,3.9,13.7,7.7,20.5,11.6
			C1712-1835.1,1713.1-1834.5,1714.1-1833.9z"/>
		<path id="XMLID_81_" class="st4" d="M1787.3-1736.5c-1-0.5-1.8-1-2.7-1.5c-7.1-4-14.2-8-21.3-12.1c-0.3-0.2-0.4-0.4-0.4-0.8
			c0-31.3,0-62.7,0-94c0-0.2,0-0.3,0-0.5c0.2,0.1,0.3,0.1,0.4,0.2c7.8,4.4,15.7,8.9,23.5,13.3c0.3,0.2,0.5,0.4,0.4,0.7
			c0,0.1,0,0.2,0,0.3c0,31.2,0,62.3,0,93.5C1787.3-1737.1,1787.3-1736.8,1787.3-1736.5z"/>
	</g>
</g>
<g id="XMLID_3_">
	<path id="XMLID_118_" class="st5" d="M553-1896.3c-1.1-0.1-1.7-0.7-2-1.7c-0.3-1-0.7-2-1-3c-1.4-4.2-2.7-8.5-4.5-12.5
		c-2.2-4.7-5.2-8.7-9.7-11.5c-0.8-0.5-1.3-1.2-1.7-2c-0.4-0.8-0.8-1.6-1.3-2.4c-2-3.4-4.5-6.1-8.2-7.7c-2.8-1.2-5.8-1.8-8.9-1.3
		c-2.9,0.5-5.3,2-7.5,3.9c-3,2.8-5.3,6.2-7.1,9.8c-2.2,4.4-3.7,9-4.8,13.8c-0.3,1.1-0.6,2.2-1,3.2c-0.8,1.8-2.1,2.4-4,2
		c-1.3-0.3-2.7-0.6-4-0.8c-2.5-0.4-4.9-0.7-7.4-1.1c-1.9-0.3-2.9,0.4-3.4,2.3c-0.2,0.7-0.2,1.4-0.3,2.1c-0.2,2.1-0.4,4.2-0.6,6.3
		c-0.3,2.4-0.5,4.8-0.8,7.2c-0.2,2.1-0.4,4.1-0.7,6.2c-0.2,2.3-0.5,4.7-0.7,7c-0.2,2-0.4,4-0.6,6c-0.2,2.3-0.5,4.7-0.7,7
		c-0.2,2.4-0.5,4.7-0.7,7.1c-0.2,2.3-0.5,4.7-0.7,7c-0.2,2.4-0.5,4.7-0.7,7.1c-0.3,2.7-0.6,5.3-0.8,8c-0.3,2.7-0.5,5.4-0.8,8.1
		c-0.3,2.7-0.6,5.3-0.8,8c-0.3,2.7-0.5,5.4-0.8,8.1c-0.3,2.9-0.6,5.9-1,8.8c-0.3,2.7-0.6,5.4-1,8c-0.1,0.6,0,1.1,0.6,1.6
		c5.2,4.1,10.3,8.3,15.5,12.5c12.4,10,24.8,20,37.3,30c10.2,8.2,20.5,16.4,30.7,24.6l7.7-171.4
		C555.2-1895.9,554.1-1896.2,553-1896.3z M531.5-1918.7c0.4,0,0.5,0.2,0.7,0.6c0.5,1.3,0.6,2.7,0.7,4c0.2,2.3,0.4,4.6,0.7,6.8
		c0.2,1.7,0.3,3.5,0.4,5.2c0,0.4,0.1,0.8,0.1,1.2c0,0,0.1,0,0.1,0c-0.1,0.4-0.3,0.8-0.4,1.1c-0.2,0.4-0.5,0.5-1,0.4
		c-4.2-0.6-8.4-1.3-12.6-1.9c-0.1,0-0.3-0.1-0.4-0.1c-0.6-0.2-0.7-0.3-0.6-0.9c0.5-4.4,2.1-8.3,4.7-11.8c1.3-1.8,2.9-3.3,5-4.2
		C529.7-1918.6,530.6-1918.8,531.5-1918.7z M501.1-1905.4c0.4-1.6,0.9-3.3,1.4-4.9c1.3-4.1,2.9-8.1,5.2-11.8
		c1.5-2.5,3.3-4.8,5.6-6.7c1.9-1.5,4.1-2.5,6.6-2.4c1.9,0,3.8,0.5,5.5,1.3c1.2,0.5,2.1,1.4,2.9,2.5c0.2,0.2,0.2,0.4-0.1,0.5
		c-0.2,0.1-0.4,0.3-0.6,0.3c-4.3,0.9-7.2,3.5-9.3,7.2c-1.5,2.6-2.4,5.5-3.3,8.4c-0.6,2.2-1.2,4.4-1.8,6.6c0,0.1-0.1,0.3-0.1,0.4
		c-0.4,1.3-0.9,1.6-2.3,1.4c-2.7-0.4-5.5-0.9-8.2-1.3c-0.3,0-0.5-0.1-0.8-0.2C500.9-1904.3,500.8-1904.4,501.1-1905.4z
		 M535.1-1858.4c-1.4,4.7-2.8,9.4-4.2,14.2c-0.3,1.2-0.7,2.3-1.1,3.5c0,0.1-0.1,0.3-0.2,0.4c-0.1,0-0.1,0.1-0.2,0.1
		c-0.1-0.2-0.2-0.4-0.4-0.6c-2.1-2.3-4.3-4.5-6.8-6.5c-2.2-1.7-4.4-3.1-7.1-4c-1-0.3-2-0.5-3-0.3c-1.5,0.3-2.4,1.2-2.9,2.6
		c-0.7,1.8-0.6,3.7-0.2,5.6c0.4,1.8,1.3,3.4,2.2,5c3.3,5.5,6.6,10.9,9.9,16.4c2.2,3.7,4.3,7.5,5.6,11.6c1.1,3.4,1.9,6.8,2.2,10.3
		c0.2,2.3,0.3,4.6,0.3,6.9c-0.1,4.5-0.9,8.9-3,12.9c-1.2,2.3-2.8,4.2-5.1,5.4c-2.6,1.4-5.3,1.4-8,0.7c-4.4-1.1-8.3-3.3-11.9-6.2
		c-4.6-3.7-8.4-8.2-11.7-13.1c-1.3-1.9-2.5-3.9-3.6-5.8c-0.7-1.1-0.9-2.3-0.5-3.6c1.1-4.1,2.1-8.1,3.2-12.2c0.1-0.3,0.3-0.6,0.5-1
		c0.2,0.2,0.3,0.4,0.4,0.5c2.2,3,4.3,6.1,6.5,9.1c2,2.6,4.2,4.9,7,6.6c0.7,0.4,1.5,0.8,2.3,1c1.4,0.4,2.6-0.2,3.3-1.5
		c0.7-1.2,0.8-2.5,0.8-3.8c-0.2-4.5-2-8.4-4.2-12.2c-2-3.3-4-6.5-5.9-9.8c-2.6-4.6-4.7-9.4-5.8-14.6c-0.5-2.3-0.8-4.7-1-7.1
		c-0.3-5.7,0.7-11.1,2.9-16.4c1.2-2.9,2.9-5.5,5.6-7.3c1.8-1.2,3.8-1.9,5.9-2.1c3.8-0.4,7.4,0.4,10.9,1.7
		c6.4,2.3,11.9,6.2,16.6,11.1C535.1-1860.2,535.4-1859.4,535.1-1858.4z M545.2-1897.5c-1.8-0.2-3.6-0.5-5.3-0.8
		c-0.3,0-0.4-0.2-0.4-0.4c-0.2-2.6-0.5-5.1-0.7-7.7c-0.3-2.7-0.5-5.4-0.8-8.1c-0.1-0.7-0.1-1.5-0.2-2.2c0.1-0.1,0.1-0.1,0.2-0.2
		c0.1,0.2,0.2,0.4,0.3,0.5c2.6,2.6,4.2,5.9,5.5,9.3c1,2.8,1.8,5.6,2.4,8.5C546.4-1897.9,546-1897.4,545.2-1897.5z"/>
	<path id="XMLID_117_" class="st1" d="M529.4-1840.2c-0.1-0.2-0.2-0.4-0.4-0.6c-2.1-2.3-4.3-4.5-6.8-6.5c-2.2-1.7-4.4-3.1-7.1-4
		c-1-0.3-2-0.5-3-0.3c-1.5,0.2-2.4,1.2-2.9,2.6c-0.7,1.8-0.6,3.7-0.2,5.6c0.4,1.8,1.3,3.4,2.2,5c3.3,5.5,6.6,10.9,9.9,16.4
		c2.2,3.7,4.3,7.5,5.6,11.6c1.1,3.4,1.9,6.8,2.2,10.3c0.2,2.3,0.3,4.6,0.3,6.9c-0.1,4.5-0.9,8.9-3,12.9c-1.2,2.3-2.8,4.2-5.1,5.4
		c-2.6,1.4-5.3,1.4-8,0.7c-4.4-1.1-8.3-3.3-11.9-6.2c-4.6-3.7-8.4-8.2-11.7-13.1c-1.3-1.9-2.5-3.9-3.6-5.8c-0.7-1.1-0.9-2.3-0.5-3.6
		c1.1-4.1,2.1-8.1,3.2-12.2c0.1-0.3,0.3-0.6,0.5-1c0.2,0.2,0.3,0.4,0.4,0.5c2.2,3,4.3,6.1,6.5,9.1c2,2.6,4.2,4.9,7,6.6
		c0.7,0.4,1.5,0.8,2.3,1c1.4,0.4,2.6-0.2,3.3-1.5c0.7-1.2,0.8-2.5,0.8-3.8c-0.2-4.5-2-8.4-4.2-12.2c-2-3.3-4-6.5-5.9-9.8
		c-2.6-4.6-4.7-9.4-5.8-14.5c-0.5-2.3-0.8-4.7-1-7.1c-0.3-5.7,0.7-11.1,2.9-16.4c1.2-2.9,2.9-5.4,5.6-7.3c1.8-1.2,3.8-1.9,5.9-2.1
		c3.8-0.4,7.4,0.4,10.9,1.7c6.4,2.3,11.9,6.2,16.6,11.1c0.7,0.7,1,1.5,0.7,2.5c-1.4,4.7-2.8,9.4-4.2,14.2c-0.3,1.2-0.7,2.3-1.1,3.5
		c0,0.1-0.1,0.3-0.2,0.4C529.5-1840.3,529.5-1840.2,529.4-1840.2z"/>
	<path id="XMLID_33_" class="st6" d="M598.2-1711.1c0,1.8-0.2,2-1.5,1.6c-14-3.8-28-7.7-42-11.5c-2.3-0.6-4.2-1.8-6.1-3.3l7.7-171.4
		c1,0.2,1.7,0.8,2.3,1.5c0.5,0.6,0.9,1.3,1.3,1.9c2.4,4.5,4.8,9,7.2,13.5c0.7,1.2,1.5,2.2,2.7,3c3,2,5.9,3.9,8.8,5.9
		c0.4,0.3,0.8,0.6,1.2,0.8c1.3,0.8,1.9,2,2.1,3.5c0.3,2.8,0.6,5.5,0.9,8.3c0.3,3,0.6,5.9,0.9,8.9c0.3,3,0.6,6,0.9,9
		c0.3,3,0.6,6,0.9,8.9c0.3,2.9,0.6,5.9,0.9,8.8c0.3,3.3,0.7,6.6,1,9.9c0.3,3.2,0.7,6.5,1,9.7c0.3,3.2,0.7,6.5,1,9.7
		c0.3,2.9,0.6,5.8,0.9,8.8c0.3,3.3,0.7,6.5,1,9.8c0.3,2.9,0.6,5.8,0.9,8.8c0.3,3.3,0.7,6.6,1,9.9c0.3,3.2,0.7,6.5,1,9.7
		c0.3,3.3,0.7,6.6,1,9.9c0.3,3.2,0.7,6.5,1,9.7c0.3,3.2,0.7,6.4,1,9.6C597.9-1714.3,598.1-1712.5,598.2-1711.1z"/>
</g>
<path id="XMLID_100_" class="st0" d="M1830.9,547.4l-151.3-143.9c-25.9-14.1-41.9-40.8-41.9-69.6l-48.4-192.2
	c0.6-26.1,61.2-65.6,85.3-51.5l204.6,111.8c23.1,12.6,37.3,36.3,37.3,62v234.3C1916.5,517.3,1895.2,556.8,1830.9,547.4z"/>
<path id="XMLID_99_" class="st1" d="M1822.8,544.5L1629.9,436c-25.1-14.1-40.7-40.8-40.7-69.6V143.6c0-18.4,19.8-30,35.9-21
	l198.7,111.8c22.4,12.6,36.3,36.3,36.3,62v226.3C1860,541.8,1839.5,553.9,1822.8,544.5z"/>
<path id="XMLID_76_" class="st0" d="M1826.8-209.5l-151.3-143.9c-25.9-14.1-41.9-40.8-41.9-69.6l-48.4-192.2
	c0.6-26.1,61.2-65.6,85.3-51.5L1875-555c23.1,12.6,37.3,36.3,37.3,62v234.3C1912.3-239.6,1891-200.1,1826.8-209.5z"/>
<path id="XMLID_75_" class="st1" d="M1818.6-212.4l-192.9-108.5c-25.1-14.1-40.7-40.8-40.7-69.6v-222.8c0-18.4,19.8-30,35.9-21
	l198.7,111.8c22.4,12.6,36.3,36.3,36.3,62v226.3C1855.9-215,1835.3-203,1818.6-212.4z"/>
<path id="XMLID_59_" class="st0" d="M630.1-933.9l-151.3-143.9c-25.9-14.1-41.9-40.8-41.9-69.6l-48.4-192.2
	c0.6-26.1,61.2-65.6,85.3-51.5l204.6,111.8c23.1,12.6,37.3,36.3,37.3,62v234.3C715.6-964,694.3-924.5,630.1-933.9z"/>
<path id="XMLID_58_" class="st1" d="M621.9-936.8l-192.9-108.5c-25.1-14.1-40.7-40.8-40.7-69.6v-222.8c0-18.4,19.8-30,35.9-21
	l198.7,111.8c22.4,12.6,36.3,36.3,36.3,62v226.3C659.2-939.4,638.6-927.4,621.9-936.8z"/>
<path id="XMLID_56_" class="st0" d="M630.1-203.4L478.7-347.3c-25.9-14.1-41.9-40.8-41.9-69.6l-48.4-192.2
	c0.6-26.1,61.2-65.6,85.3-51.5l204.6,111.8c23.1,12.6,37.3,36.3,37.3,62v234.3C715.6-233.5,694.3-194,630.1-203.4z"/>
<path id="XMLID_55_" class="st1" d="M621.9-206.3L429.1-314.8c-25.1-14.1-40.7-40.8-40.7-69.6v-222.8c0-18.4,19.8-30,35.9-21
	l198.7,111.8c22.4,12.6,36.3,36.3,36.3,62v226.3C659.2-209,638.6-196.9,621.9-206.3z"/>
<path id="XMLID_48_" class="st7" d="M610.8-1129c-0.1,0.8-0.1,1.7-0.3,2.5c-0.4,1.9-0.7,3.8-1.3,5.5c-4.9,14.5-9.8,29-14.7,43.4
	c-3.4,10-6.9,20-10.3,30c-1,2.9-2.3,5.6-4.3,7.9c-3,3.5-6.8,5.2-11.5,4.7c-3.5-0.4-6.8-1.7-9.8-3.4c-4.4-2.5-8.1-5.9-11.3-9.8
	c-5.8-6.9-9.5-14.9-11.7-23.6c-1.6-6.4-3-12.9-4.6-19.4c-0.4-1.7-0.8-3.4-1.2-5.1c0-0.2-0.1-0.3-0.3-0.5c-0.1,0.2-0.1,0.3-0.2,0.5
	c-1.6,5.2-3.1,10.3-4.7,15.5c-0.8,2.5-1.7,4.9-3.2,7.1c-2,2.9-4.6,4.9-8,5.7c-2.4,0.5-4.8,0.2-7.2-0.5c-4.3-1.3-8-3.5-11.5-6.3
	c-5-3.9-8.8-8.9-12-14.4c-3.9-6.8-6.4-14.1-8.3-21.6c-2.3-9.5-4.7-19.1-7.1-28.6c-2.4-9.9-4.9-19.7-7.3-29.6
	c-2.3-9.2-4.5-18.5-6.8-27.7c-1.2-4.8-2.4-9.7-3.4-14.6c-0.6-3-0.8-6-1.2-9c-0.1-0.7-0.1-1.5-0.2-2.2c0-1.2,0-2.4,0-3.6
	c0-0.2,0.1-0.4,0.1-0.5c0.1-2,0.5-3.9,1.2-5.8c1.3-3.3,3.5-5.5,6.9-6.5c2.4-0.7,4.9-0.8,7.3-0.3c3.4,0.6,6.5,2.1,9.3,4
	c4.5,3,8.2,6.9,11.3,11.3c3.9,5.7,6.6,12,8.2,18.7c1.9,8.4,3.6,16.8,5.4,25.1c0.5,2.5,1.1,4.9,1.7,7.3c0,0.2,0.1,0.3,0.2,0.6
	c0.1-0.2,0.1-0.3,0.2-0.4c0.6-1.9,1.1-3.8,1.7-5.7c1.6-5.5,3.3-11,4.9-16.5c0.6-2,1.3-4.1,2.3-5.9c1.2-2.1,2.7-4,4.8-5.2
	c2.5-1.4,5.1-1.5,7.9-1c3.5,0.7,6.7,2.2,9.7,4.2c5,3.2,9,7.6,12.2,12.5c4,6.1,6.6,12.8,8.1,19.9c2.2,9.7,4.3,19.5,6.5,29.3
	c0.1,0.5,0.3,1,0.4,1.5c0,0,0.1,0,0.1,0c0.2-0.4,0.4-0.7,0.5-1.1c2.1-7.3,4.2-14.7,6.2-22c0.8-2.7,1.8-5.3,3.5-7.6
	c2.2-2.8,5-4.3,8.6-4.2c2.3,0,4.5,0.6,6.7,1.5c5.8,2.4,10.4,6.2,14.4,10.9c3.1,3.6,5.5,7.7,7.4,12c2.1,4.7,3.4,9.5,4,14.6
	c0.1,0.9,0.2,1.8,0.3,2.7C610.8-1131.4,610.8-1130.2,610.8-1129z M529.5-1135.4c0.1,0,0.1,0,0.2,0c0.3,1,0.5,2,0.8,2.9
	c2.3,10.4,4.7,20.8,7,31.1c1.6,7.1,3.2,14.3,4.8,21.4c1,4.5,2,8.9,3.5,13.3c2,5.7,5.2,10.6,9.9,14.5c2.3,1.9,4.9,3.4,7.9,4.1
	c3.3,0.7,6.1,0,8.2-2.7c1.3-1.6,2.4-3.4,3.1-5.3c1.2-3.2,2.3-6.4,3.4-9.6c2.5-7.3,5-14.6,7.5-21.8c4.7-13.9,9.4-27.8,14.2-41.7
	c1.1-3.3,1.5-6.6,1-10c-1-7.4-4.3-13.6-10.1-18.3c-2.4-1.9-5-3.3-8-3.7c-2-0.3-3.8,0.4-5.1,1.9c-1.4,1.5-2.1,3.3-2.6,5.2
	c-2.1,7.4-4.2,14.9-6.3,22.3c-2.3,8-4.5,16-6.8,23.9c-0.8,2.8-1.6,5.5-2.5,8.3c0,0.2-0.1,0.3-0.2,0.4c-0.3-0.8-0.5-1.6-0.7-2.4
	c-3-13.5-6-27-9-40.4c-1.7-7.8-3.5-15.6-5.2-23.4c-1-4.3-1.9-8.7-3.4-12.9c-1.7-4.6-4.3-8.6-8.2-11.7c-2.3-1.9-4.8-3.3-7.8-3.9
	c-2.4-0.5-4.4,0.1-5.9,2.1c-1.4,1.8-2.3,3.8-2.9,5.9c-1.7,5.5-3.3,11.1-4.9,16.7c-3.5,11.8-7,23.6-10.5,35.3
	c-0.2,0.6-0.4,1.2-0.7,1.8c-0.4-1.1-0.7-2.2-0.9-3.3c-2.6-12.1-5.3-24.3-7.9-36.4c-2.2-10.1-4.3-20.3-6.5-30.4
	c-0.7-3.5-1.5-6.9-3-10.2c-2-4.4-4.7-8.3-8.7-11.1c-2.7-1.9-5.6-3.1-8.9-3c-3.2,0.1-5.3,1.9-5.9,5c-0.3,1.7-0.2,3.4,0,5
	c0.5,4.5,1.2,9,2.2,13.5c2.4,9.9,4.8,19.8,7.2,29.6c2.7,10.8,5.3,21.6,8,32.4c2.3,9.2,4.6,18.4,6.9,27.6c1.2,4.7,2.4,9.5,4.2,14
	c2.2,5.6,5.4,10.5,10.1,14.3c2.3,1.9,4.7,3.3,7.6,3.9c3.5,0.7,6.4-0.3,8.5-3.3c1.2-1.8,2-3.7,2.6-5.8c1.6-5.3,3.3-10.6,4.9-15.8
	c2.7-8.8,5.3-17.6,8-26.5C528.8-1133.5,529.2-1134.4,529.5-1135.4z"/>
<path id="XMLID_66_" class="st8" d="M570.3-378c-0.1-0.4-0.3-0.7-0.4-0.9c-5.2-11.7-10.3-23.4-15.4-35.1c-0.3-0.6-0.4-1.3-0.5-2
	c-0.1-0.6,0.2-0.8,0.7-0.7c0.8,0.1,1.6,0.2,2.3,0.4c7.5,2.6,15,5.2,22.5,7.8c1.1,0.4,1.8,1.1,2.4,2c1.5,2.1,2.5,4.5,3.6,6.8
	c5.5,11.2,10.9,22.4,16.3,33.6c0.2,0.5,0.5,1,0.6,1.5c0.2,0.8-0.1,1.2-0.9,1.1c-2.5-0.5-5-1-7.5-1.5c-4.7-1-9.5-2.1-14.2-3.2
	c-0.2,0-0.4,0-0.6-0.1c0.1,0.3,0.2,0.6,0.4,0.9c3.6,7.8,7.1,15.6,10.7,23.4c2.8,6.1,5.6,12.2,8.4,18.4c0.3,0.6,0.5,1.3,0.7,1.9
	c0.3,1.1,0,1.5-1.1,1.6c-0.9,0-1.8,0-2.6-0.1c-1.9-0.2-3.8-0.4-5.7-0.6c-2-0.2-4-0.4-6-0.6c-1.9-0.2-3.8-0.4-5.7-0.6
	c-2-0.2-3.9-0.4-5.9-0.7c-1.9-0.2-3.8-0.4-5.7-0.6c-1.9-0.2-3.8-0.4-5.7-0.6c-1.9-0.2-3.7-0.4-5.6-0.6c-2-0.2-4-0.5-6-0.7
	c-1.6-0.2-3.2-0.4-4.9-0.6c-2.6-0.3-4.6-1.5-6-3.8c-1.2-2.1-2.1-4.3-2.9-6.6c-5.4-14.5-10.7-29-16.1-43.5c-0.2-0.6-0.6-1-1.3-1.1
	c-9.8-2.3-19.6-4.5-29.4-6.8c-1.1-0.2-2.1-0.5-3.2-0.8c-3-0.8-4.9-2.8-6.4-5.4c-1.1-1.9-1.6-3.9-2.2-6
	c-6.7-21.4-13.5-42.9-20.2-64.3c-3.9-12.3-7.7-24.6-11.5-36.9c-0.4-1.4-0.7-2.8-1-4.3c-0.1-0.4,0-1,0.1-1.4c0.2-0.9,0.7-1.2,1.6-0.9
	c1.3,0.5,2.7,1,3.9,1.6c9.4,4.2,18.9,8.5,28.3,12.7c0.8,0.4,1.6,0.8,2.4,1.3c1.3,0.9,2.1,2.1,2.6,3.5c4.3,11,8.6,22,12.9,33
	c8.6,22.1,17.1,44.2,25.6,66.3c0.3,0.8,0.7,1.2,1.6,1.4c11,2.8,22,5.6,32.9,8.4c4.5,1.1,9,2.3,13.5,3.4
	C569.9-378.1,570-378.1,570.3-378z M514.7-392.2c0.7,0,1-0.2,0.8-0.8c-0.1-0.4-0.3-0.9-0.4-1.3c-7.2-19.1-14.5-38.3-21.7-57.4
	c-4.7-12.4-9.4-24.9-14.1-37.3c-0.3-0.7-0.7-1.1-1.3-1.4c-6.9-3-13.8-6.1-20.6-9.1c-1.7-0.7-3.4-1.5-5.1-2.2c-0.2-0.1-0.5-0.1-0.6,0
	c-0.1,0.1-0.1,0.4-0.1,0.6c0,0.4,0.1,0.7,0.3,1c5,15.2,9.9,30.3,14.9,45.5c5.8,17.6,11.5,35.2,17.2,52.9c0.6,1.9,0.4,1.8,2.5,2.4
	c8.5,2.2,17,4.4,25.5,6.6C512.9-392.6,513.9-392.4,514.7-392.2z M525.6-381.5c0.1,0.4,0.2,0.6,0.3,0.9c5,13.1,9.9,26.1,14.9,39.2
	c0.3,0.9,0.8,1.7,1.3,2.6c0.3,0.6,0.8,0.9,1.5,1c1.8,0.2,3.6,0.5,5.5,0.7c2.2,0.3,4.3,0.6,6.5,0.9c2.1,0.3,4.2,0.5,6.2,0.8
	c2.1,0.3,4.2,0.6,6.3,0.9c2,0.3,4.1,0.5,6.1,0.8c2.3,0.3,4.6,0.6,7,0.9c2.1,0.3,4.1,0.6,6.2,0.8c1.1,0.1,2.1,0.3,3.2,0.3
	c0.6,0,0.7-0.2,0.6-0.8c-0.2-0.6-0.4-1.1-0.6-1.6c-5.2-11.6-10.5-23.2-15.7-34.8c-0.5-1-1.1-1.6-2.2-1.8c-3.3-0.7-6.6-1.5-9.9-2.3
	c-11.4-2.6-22.7-5.2-34.1-7.9C527.6-381.1,526.6-381.3,525.6-381.5z M594.4-372c0.7,0,0.9-0.2,0.7-0.6c-0.1-0.3-0.3-0.7-0.4-1
	c-2-4.2-4-8.3-6-12.5c-2.5-5.2-5-10.4-7.5-15.7c-0.4-0.9-1.1-1.5-2.1-1.9c-4.8-1.5-9.7-3.1-14.5-4.7c-1.1-0.3-2.1-0.7-3.2-1
	c-0.5-0.2-0.7,0.1-0.6,0.6c0.1,0.4,0.2,0.7,0.4,1.1c2.3,5.1,4.6,10.2,6.9,15.2c2.3,5,4.5,10,6.8,15c0.3,0.6,0.6,0.9,1.2,1.1
	c5.1,1.2,10.2,2.5,15.3,3.8C592.5-372.4,593.6-372.2,594.4-372z"/>
<g id="XMLID_21_">
	<g id="XMLID_72_">
		<path id="XMLID_77_" class="st9" d="M1658-524.4c0.6,0.2,1.2,0.5,1.9,0.7c5.1,1.8,10,4.1,14.8,6.3c8.2,3.8,16.2,8.1,23.9,12.9
			c6.3,3.9,12.2,8.3,17.5,13.5c8.4,8.6,14.7,18.5,18.5,29.9c1.7,4.9,2.8,10,3.2,15.2c0.2,2.7,0.4,5.4,0.4,8.1
			c-0.1,5.6-1,11-3.2,16.2c-1.4,3.2-3.3,6-6.1,8c-2.6,1.9-5.5,2.9-8.7,3.2c-5.4,0.6-10.6-0.5-15.7-2.2c-4.7-1.6-9.1-3.8-13.5-6.2
			c-2.5-1.4-5.1-2.8-7.6-4.2c-0.1-0.1-0.2-0.1-0.4-0.2c0,16.2,0,32.3,0,48.5c-0.2-0.1-0.4-0.2-0.5-0.2c-8-4.4-16-8.8-24-13.3
			c-0.4-0.2-0.6-0.5-0.6-1c0-29.3,0-58.7,0-88c0-15.5,0-31,0-46.5C1657.9-523.8,1657.9-524.1,1658-524.4
			C1657.9-524.4,1658-524.4,1658-524.4z M1682.9-467.6C1682.9-467.6,1682.9-467.6,1682.9-467.6c0,6.3,0,12.6,0,18.9
			c0,0.4,0.1,0.6,0.4,0.9c3.8,3.2,8.1,5.6,12.7,7.4c2.6,1,5.3,1.7,8.2,1.6c1.6-0.1,3.1-0.6,4.4-1.6c1.6-1.2,2.6-2.9,3.3-4.9
			c1.4-4.4,1.4-8.9,0.6-13.4c-1.2-6.9-4.5-12.8-9.4-17.9c-3.4-3.5-7.4-6.2-11.7-8.4c-2.3-1.2-4.7-2.1-7.1-3.2
			c-1-0.4-1.4-0.1-1.5,0.9c-0.1,1.1,0,2.2,0,3.3C1682.9-478.5,1682.9-473.1,1682.9-467.6z"/>
		<path id="XMLID_74_" class="st9" d="M1743.9-367.4c0.2,0.2,0.4,0.4,0.5,0.5c2.8,2.8,5.6,5.7,8.4,8.5c3.2,3.2,6.6,6.2,10.4,8.6
			c2.2,1.4,4.4,2.6,6.9,3.4c0.7,0.2,1.4,0.4,2.1,0.4c2.2,0.2,3.9-1.2,4.2-3.5c0.3-2.8-0.4-5.4-1.8-7.8c-1.1-2-2.6-3.6-4.2-5.2
			c-3.2-3.4-6.5-6.7-9.7-10.1c-4.5-4.7-8.6-9.7-11.9-15.2c-3.3-5.5-5.7-11.3-7-17.6c-1-5.1-0.9-10.2,0.8-15.2c1-2.7,2.3-5.2,4.4-7.2
			c2.2-2.1,4.9-3.3,7.9-3.6c3.7-0.4,7.2,0.4,10.7,1.5c6.1,2,11.6,5,16.7,8.8c5.2,3.7,9.9,8,14.2,12.7c0,0,0,0.1,0.1,0.1
			c0.5,0.5,0.6,1,0.5,1.7c-1.4,5.7-2.7,11.5-4.1,17.2c0,0.2-0.1,0.3-0.2,0.6c-0.2-0.2-0.3-0.3-0.5-0.4c-1.9-2-3.8-4-5.8-6
			c-2.9-2.9-6-5.6-9.6-7.8c-1.9-1.1-3.8-2.2-6-2.6c-0.8-0.1-1.6-0.2-2.3-0.2c-1.4,0.1-2.3,1-2.8,2.3c-0.5,1.5-0.3,3,0.1,4.6
			c0.5,2,1.5,3.8,2.9,5.4c2,2.4,4,4.7,6,7c3.5,3.8,7.1,7.5,10.6,11.3c4.2,4.6,7.9,9.7,10.6,15.4c2.3,4.9,3.9,10.1,4.4,15.5
			c0.4,4.1,0.5,8.1-0.4,12.1c-0.5,2.2-1.3,4.4-2.6,6.3c-2.2,3.2-5.2,5-9.1,5.6c-4.2,0.6-8.3-0.2-12.3-1.5c-4.2-1.4-8.1-3.5-12-5.6
			c-6.5-3.6-12.3-8-17.7-13.1c-1.9-1.8-3.7-3.7-5.5-5.6c-0.2-0.2-0.4-0.5-0.6-0.8c-0.5-0.9-0.8-1.8-0.5-2.9
			c1.3-5.4,2.5-10.9,3.7-16.4C1743.6-366.7,1743.7-367,1743.9-367.4z"/>
	</g>
</g>
<path id="XMLID_265_" class="st10" d="M1793.2,386.1c0,0.9,0,1.8,0,2.8c0.1,1.6-0.2,3.1-0.4,4.6c-0.1,1-0.1,1.9-0.2,2.9
	c-0.2,1.9-0.4,3.8-0.7,5.6c-0.5,3.5-1.3,6.9-2.3,10.2c-2.3,7.7-6.1,14.6-11.4,20.6c-5,5.8-11.1,9.9-18.6,11.9
	c-2.2,0.6-4.4,1-6.7,1.2c-2.4,0.2-4.7,0.2-7.1,0.1c-4.9-0.4-9.6-1.3-14.3-2.8c-2.9-1-5.8-2-8.6-3.2c-1.7-0.7-3.4-1.8-5-2.7
	c-0.4-0.2-0.9-0.4-1.3-0.7c-4.1-2.5-8.1-5.2-11.9-8.1c-7-5.4-13.3-11.5-19-18.3c-6.7-7.9-12.7-16.3-18-25.1
	c-7.3-12.2-13-25.1-17-38.8c-1.8-6-3.2-12.1-4.2-18.2c-0.5-3.1-1-6.2-1.4-9.4c-0.3-2.4-0.5-4.7-0.7-7.1c-0.1-1.9-0.1-3.9-0.1-5.8
	c0-0.7,0-1.5,0-2.2c-0.1-1.9,0.2-3.8,0.4-5.8c0.1-1.5,0.2-3,0.4-4.5c0.3-2.4,0.6-4.8,1.1-7.2c0.9-4.5,2.2-9,4.1-13.2
	c3.3-7.2,7.6-13.6,13.7-18.7c4.8-4,10.3-6.6,16.5-7.8c3.3-0.6,6.6-0.8,9.9-0.6c5,0.2,9.9,1.2,14.7,2.7c3.2,1,6.3,2.2,9.4,3.4
	c1.8,0.7,3.5,1.8,5.2,2.8c4.8,2.8,9.4,5.9,13.8,9.3c6.8,5.3,13,11.4,18.5,18.1c5.3,6.4,10.3,13,14.7,20
	c7.9,12.4,14.2,25.6,18.7,39.7c2.1,6.4,3.7,13,5,19.6c0.6,3.2,1.1,6.4,1.5,9.5c0.3,2.5,0.6,4.9,0.8,7.4c0.2,2.5,0.3,5,0.4,7.5
	C1793.3,386.1,1793.2,386.1,1793.2,386.1z M1752.1,414.2c0.1,0,0.1,0,0.2,0c0.2-0.4,0.3-0.8,0.4-1.3c3.2-11.3,6.3-22.7,9.5-34
	c1.1-3.8,1.8-7.6,1.9-11.5c0-2.2-0.1-4.3-0.3-6.5c-0.2-2.8-0.8-5.6-1.4-8.4c-1.2-4.9-3-9.5-4.7-14.2c-1.4-3.7-2.8-7.5-4-11.2
	c-1.1-3.4-1.8-6.9-1.6-10.5c0.1-1.8,0.5-3.5,1.3-5.1c1.5-2.6,4-3.9,6.9-3.3c1.1,0.2,2.1,0.7,3.2,1c0.2,0.1,0.3,0.1,0.6,0.2
	c-0.2-0.3-0.2-0.4-0.3-0.5c-4.9-7.7-10.3-15.1-16.3-22c-5.2-6-10.9-11.5-17.3-16.3c-7.5-5.7-15.7-10.1-24.8-12.7
	c-4.1-1.2-8.3-2-12.5-2.2c-2.5-0.1-4.9,0.1-7.3,0.5c-4.4,0.7-8.5,2.2-12.2,4.6c-3.9,2.4-7.2,5.5-10.1,9.1c-0.2,0.2-0.4,0.5-0.6,0.7
	c0.6,0.4,1.2,0.7,1.8,1c4.6,2.6,9.2,5,14,7.1c2.1,0.9,4.2,1.9,6.2,2.9c2.2,1.1,3.1,2.9,3.1,5.3c0,1-0.5,1.7-1.3,1.7
	c-0.5,0-1-0.1-1.5-0.3c-2.2-0.9-4.4-1.9-6.6-2.8c-0.2-0.1-0.4-0.1-0.7-0.2c0.1,0.3,0.1,0.5,0.1,0.7c1.7,7,3.3,13.9,5,20.9
	c2.8,12,5.7,23.9,8.5,35.9c1.7,7.1,3.4,14.2,5.1,21.3c1.8,7.6,3.6,15.3,5.4,22.9c0,0.2,0.2,0.3,0.3,0.5c0.2-0.2,0.4-0.3,0.5-0.5
	c0.1-0.1,0.1-0.2,0.1-0.3c4.5-14.3,9-28.7,13.6-43c0.4-1.3,0.5-2.6,0.1-3.9c-3.1-12.3-6.3-24.7-9.4-37c-0.4-1.4-1.1-2.5-2.4-3.3
	c-1.9-1.2-3.8-2.4-5.6-3.7c-1.7-1.2-2.3-3-1.9-5c0.2-1.1,1-1.6,2.1-1.1c0.6,0.3,1.2,0.7,1.8,1c3.3,1.9,6.6,3.9,10,5.7
	c4.8,2.7,9.7,5.5,14.6,8.1c3,1.6,6.2,2.9,9.4,4.4c1.3,0.6,2.2,1.5,2.7,2.8c0.4,0.9,0.6,1.9,0.4,2.9c-0.2,0.9-0.7,1.3-1.6,1.3
	c-0.4,0-0.8-0.1-1.1-0.3c-2.2-0.9-4.4-1.9-6.6-2.8c-0.2-0.1-0.4-0.2-0.8-0.3C1736,346.3,1744,380.2,1752.1,414.2z M1741,436.2
	c-0.1-0.3-0.1-0.4-0.1-0.6c-1.9-7.6-3.9-15.2-5.8-22.7c-3.1-12.3-6.3-24.6-9.4-36.9c-1.8-7-3.6-14.1-5.4-21.1
	c-0.1-0.3-0.2-0.6-0.6-0.6c-0.1,0.2-0.1,0.3-0.2,0.5c-0.7,2.3-1.5,4.5-2.2,6.8c-3.5,10.7-7,21.4-10.5,32.1c-2.3,7-4.6,14-6.9,21
	c-0.1,0.3-0.2,0.6,0.2,0.9c3,2.6,6.1,5.1,9.3,7.5c8.8,6.3,18.2,11,28.9,12.8C1739.2,435.9,1740.1,436,1741,436.2z M1651.6,310
	c0.1,0,0.1,0,0.2,0c0,1.3-0.1,2.5,0,3.8c0.2,2.9,0.4,5.8,0.7,8.8c0.3,2.9,0.8,5.8,1.3,8.6c1.1,6.1,2.7,12.1,4.6,18
	c3.5,10.9,8.1,21.4,13.9,31.3c4.8,8.3,10.4,16.1,16.7,23.5c0.1,0.2,0.4,0.2,0.6,0.3c0-0.2,0.1-0.4,0-0.6c-0.5-2-1-4.1-1.5-6.1
	c-3.7-14.3-7.3-28.7-11-43c-3-11.9-6.1-23.8-9.1-35.8c-2.9-11.5-5.9-23-8.8-34.6c-0.3-1.3-0.7-2.7-1.1-4c-0.1-0.2-0.3-0.3-0.4-0.5
	c-0.1,0.1-0.2,0.3-0.3,0.4c-0.1,0.1-0.1,0.2-0.1,0.3c-3,7.4-4.6,15.2-5.2,23.1C1651.7,305.6,1651.7,307.8,1651.6,310z M1777.8,339.1
	c0,0-0.1,0-0.1,0c0,0.1,0,0.1,0,0.2c0,0.9,0.1,1.7,0.1,2.6c0,4.2,0.1,8.4-0.4,12.5c-0.2,1.8-0.4,3.6-0.8,5.4
	c-0.7,3.7-1.8,7.4-2.9,11c-6.5,19.5-12.9,39-19.4,58.6c-0.6,1.8-1.2,3.6-1.8,5.4c-0.1,0.3-0.2,0.6,0.1,0.8c0.2,0.1,0.5,0.1,0.7,0.1
	c0.5-0.1,0.9-0.2,1.4-0.4c6.2-1.7,11.7-4.7,16.3-9.2c4.5-4.4,7.7-9.7,9.9-15.6c1.9-4.9,3.2-10,3.8-15.2c0.4-3.2,0.8-6.5,0.9-9.7
	c0.1-2.9,0.1-5.7-0.1-8.6c-0.1-2.4-0.3-4.9-0.6-7.3c-0.4-2.9-0.8-5.8-1.3-8.7c-1.4-7.3-3.4-14.5-5.9-21.5
	C1778,339.4,1777.9,339.2,1777.8,339.1z"/>
</svg>
